<?xml version="1.0" encoding="utf-8"?>
<!-- Generator: Adobe Illustrator 26.5.0, SVG Export Plug-In . SVG Version: 6.00 Build 0)  -->
<svg version="1.1" id="Laag_1" xmlns="http://www.w3.org/2000/svg" xmlns:xlink="http://www.w3.org/1999/xlink" x="0px" y="0px"
	 viewBox="0 0 325.3 170.5" style="enable-background:new 0 0 325.3 170.5;" xml:space="preserve">
<style type="text/css">
	.st0{fill:#FFFFFF;}
	.st1{fill:none;stroke:#29235C;stroke-width:2.5;stroke-miterlimit:10;}
	.st2{fill:#FFFFFF;stroke:#29235C;stroke-width:2.5;stroke-miterlimit:10;}
	.st3{fill:none;stroke:#29235C;stroke-width:2.5;stroke-linecap:round;stroke-linejoin:round;stroke-miterlimit:10;}
</style>
<g>
	<path class="st0" d="M301.4,106.5V39.1c0-20.5-17.1-37.1-38.1-37.1c0,0-55.1,0-55.1,0h-146c-21,0-38.1,16.6-38.1,37.1v62.4"/>
	<path class="st1" d="M208.2,2h-146c-21,0-38.1,16.6-38.1,37.1v17.3v46.5h277.2V56.4"/>
	<path class="st1" d="M301.4,56.4V39.1c0-20.5-17.1-37.1-38.1-37.1h-55.1"/>
	<path class="st0" d="M273.6,143.1l10,21.5c2.5,4.4,7.9,5.7,12,3c4.1-2.7,5.3-8.5,2.8-12.9l-7.7-16.1"/>
	<path class="st2" d="M51.9,143.1l-10,21.5c-2.5,4.4-7.9,5.7-12,3c-4.1-2.7-5.3-8.5-2.8-12.9l7.7-16.1"/>
	<path class="st1" d="M273.6,143.1l10,21.5c2.5,4.4,7.9,5.7,12,3c4.1-2.7,5.3-8.5,2.8-12.9l-7.7-16.1"/>
	<path class="st0" d="M212.4,143.3L50,143.1c-7.7,0-14.5-3.8-18.5-9.6L18,101.5l0,0C8.4,98.9,1.4,90.3,1.4,80
		c0-12.3,10.2-22.4,22.8-22.4c7.9,0,14.8,3.9,18.9,9.9l12.1,23.1l0.7,0.5c14.5-6.8,35.2-11,58.1-11h97.6c22.9,0,43.6,4.2,58.1,11
		l0.7-0.5l12.1-23.1c4.1-5.9,11-9.9,18.9-9.9c12.6,0,22.8,10,22.8,22.4c0,10.2-7,18.9-16.6,21.5l0,0L294,133.5
		c-4,5.8-10.8,9.6-18.5,9.6l-64,0.2"/>
	<path class="st3" d="M212.4,143.3L50,143.1c-7.7,0-14.5-3.8-18.5-9.6L18,101.5l0,0C8.4,98.9,1.4,90.3,1.4,80
		c0-12.3,10.2-22.4,22.8-22.4c7.9,0,14.8,3.9,18.9,9.9l12.1,23.1l0.7,0.5c14.5-6.8,35.2-11,58.1-11h97.6c22.9,0,43.6,4.2,58.1,11
		l0.7-0.5l12.1-23.1c4.1-5.9,11-9.9,18.9-9.9c12.6,0,22.8,10,22.8,22.4c0,10.2-7,18.9-16.6,21.5l0,0L294,133.5
		c-4,5.8-10.8,9.6-18.5,9.6l-64,0.2"/>
	<path class="st0" d="M24.1,39.1v62.4"/>
</g>
</svg>
