<?xml version="1.0" encoding="utf-8"?>
<!-- Generator: Adobe Illustrator 26.5.0, SVG Export Plug-In . SVG Version: 6.00 Build 0)  -->
<svg version="1.1" id="Laag_1" xmlns="http://www.w3.org/2000/svg" xmlns:xlink="http://www.w3.org/1999/xlink" x="0px" y="0px"
	 viewBox="0 0 60 92" style="enable-background:new 0 0 60 92;" xml:space="preserve">
<style type="text/css">
	.st0{fill:none;stroke:#29235C;stroke-width:2.5;stroke-linecap:round;stroke-miterlimit:10;}
	.st1{fill:#FFFFFF;stroke:#29235C;stroke-width:2.5;stroke-linecap:round;stroke-miterlimit:10;}
</style>
<g>
	<path class="st0" d="M58.1,49.7c0,4.4-3.6,8-8,8H10.3c-4.4,0-8-3.6-8-8V10c0-4.4,3.6-8,8-8h39.7c4.4,0,8,3.6,8,8V49.7z"/>
</g>
<path class="st1" d="M30,35.2c-6.8,0-12.4,5.5-12.4,12.4V64l-5.3,11.3h18.6"/>
<path class="st1" d="M30,35.2c6.8,0,12.4,5.5,12.4,12.4V64l5.3,11.3H29.1"/>
<path class="st1" d="M33.5,76.2c0,2.2-1.8,4-4,4s-4-1.8-4-4"/>
<path class="st1" d="M42.4,81.6c-2.2,5.2-7.3,8.5-12.9,8.5s-10.7-3.4-12.9-8.5"/>
<path class="st1" d="M25.8,77.7c0.6,1.5,2.1,2.4,3.7,2.4s3-1,3.7-2.4"/>
<path class="st1" d="M37.8,79.7c-1.4,3.2-4.6,5.5-8.3,5.5c-3.7,0-6.9-2.3-8.3-5.5"/>
<path class="st1" d="M33.5,76.2c0,2.2-1.8,4-4,4s-4-1.8-4-4"/>
</svg>
