<?xml version="1.0" encoding="utf-8"?>
<!-- Generator: Adobe Illustrator 26.5.0, SVG Export Plug-In . SVG Version: 6.00 Build 0)  -->
<svg version="1.1" id="Laag_1" xmlns="http://www.w3.org/2000/svg" xmlns:xlink="http://www.w3.org/1999/xlink" x="0px" y="0px"
	 viewBox="0 0 119.1 70.1" style="enable-background:new 0 0 119.1 70.1;" xml:space="preserve">
<style type="text/css">
	.st0{fill:none;stroke:#29235C;stroke-width:2.5;stroke-linecap:round;stroke-linejoin:round;stroke-miterlimit:10;}
</style>
<path class="st0" d="M117.3,67.5c-6.4,0-6.4-5.4-12.8-5.4c-6.4,0-6.4,5.4-12.8,5.4c-6.4,0-6.4-5.4-12.8-5.4c-6.4,0-6.4,5.4-12.8,5.4
	c-6.4,0-6.4-5.4-12.8-5.4 M66.2,67.5c-6.4,0-6.4-5.4-12.8-5.4c-6.4,0-6.4,5.4-12.8,5.4c-6.4,0-6.4-5.4-12.8-5.4s-6.4,5.4-12.8,5.4
	c-6.4,0-6.4-5.4-12.8-5.4 M105.4,45H17.3 M43.2,14.8L34.9,2.7H26l5.3,12.1 M62.6,14.8L54.2,2.7h-8.8l5.3,12.1 M90,34L72.1,15.6H15.7
	v8.8 M12.5,56.6L3.8,34.1h110.5L96,56.6"/>
</svg>
