<?xml version="1.0" encoding="utf-8"?>
<!-- Generator: Adobe Illustrator 26.5.0, SVG Export Plug-In . SVG Version: 6.00 Build 0)  -->
<svg version="1.1" id="Laag_1" xmlns="http://www.w3.org/2000/svg" xmlns:xlink="http://www.w3.org/1999/xlink" x="0px" y="0px"
	 viewBox="0 0 80 102" style="enable-background:new 0 0 80 102;" xml:space="preserve">
<style type="text/css">
	.st0{fill:#FFFFFF;}
	.st1{fill:none;stroke:#29235C;stroke-width:2.5;stroke-linecap:round;stroke-miterlimit:10;}
	.st2{fill:#FFFFFF;stroke:#29235C;stroke-width:2.5;stroke-miterlimit:10;}
	.st3{fill:none;stroke:#29235C;stroke-width:2.5;stroke-miterlimit:10;}
</style>
<g>
	<path class="st0" d="M3.9,100.5c0-7.4,6-13.4,13.4-13.4c7.4,0,13.4,6,13.4,13.4"/>
	<path class="st1" d="M3.9,100.5c0-7.4,6-13.4,13.4-13.4c7.4,0,13.4,6,13.4,13.4"/>
</g>
<path class="st2" d="M57,14.1L62,25.2l16-16L66.9,3.7l-1.4-0.9L55.9,12L57,14.1z M13.9,87.6L5.5,54.9L57,3.7"/>
<g>
	<path class="st0" d="M9.5,54.9c0,2.2-1.8,4-4,4s-4-1.8-4-4c0-2.2,1.8-4,4-4S9.5,52.7,9.5,54.9"/>
	<path class="st3" d="M9.5,54.9c0,2.2-1.8,4-4,4s-4-1.8-4-4c0-2.2,1.8-4,4-4S9.5,52.7,9.5,54.9z"/>
	<path class="st0" d="M59,3.9c0,1.3-1,2.3-2.3,2.3c-1.3,0-2.3-1-2.3-2.3c0-1.3,1-2.3,2.3-2.3C58,1.6,59,2.6,59,3.9"/>
	<path class="st1" d="M59,3.9c0,1.3-1,2.3-2.3,2.3c-1.3,0-2.3-1-2.3-2.3c0-1.3,1-2.3,2.3-2.3C58,1.6,59,2.6,59,3.9z"/>
</g>
</svg>
