<?xml version="1.0" encoding="utf-8"?>
<!-- Generator: Adobe Illustrator 26.5.0, SVG Export Plug-In . SVG Version: 6.00 Build 0)  -->
<svg version="1.1" id="Laag_1" xmlns="http://www.w3.org/2000/svg" xmlns:xlink="http://www.w3.org/1999/xlink" x="0px" y="0px"
	 viewBox="0 0 81.5 61.5" style="enable-background:new 0 0 81.5 61.5;" xml:space="preserve">
<style type="text/css">
	.st0{fill:none;stroke:#29235C;stroke-width:2.732;stroke-linecap:round;stroke-linejoin:round;stroke-miterlimit:10;}
</style>
<g>
	<path class="st0" d="M48.3,37.4h4.9v4.9h-4.9V37.4z M36.1,37.4H41v4.9h-4.9V37.4z M23.9,37.4h4.9v4.9h-4.9V37.4z M11.6,37.4h4.9
		v4.9h-4.9V37.4z M76.6,22.6h-4.9V1.9H60.6v29.9l-16-8.5v8.5l-14.7-8.5v8.5l-13.5-8.5v8.5L5.3,23.4c-1.4,0-2.5,1.1-2.5,2.5v31.3
		c0,1.4,1.1,2.5,2.5,2.5h71.3c1.4,0,2.5-1.1,2.5-2.5v-32C79,23.7,77.9,22.6,76.6,22.6z"/>
</g>
</svg>
