<?xml version="1.0" encoding="utf-8"?>
<!-- Generator: Adobe Illustrator 26.5.0, SVG Export Plug-In . SVG Version: 6.00 Build 0)  -->
<svg version="1.1" id="Laag_1" xmlns="http://www.w3.org/2000/svg" xmlns:xlink="http://www.w3.org/1999/xlink" x="0px" y="0px"
	 viewBox="0 0 101.5 110.3" style="enable-background:new 0 0 101.5 110.3;" xml:space="preserve">
<style type="text/css">
	.st0{fill:#FFFFFF;}
	.st1{fill:none;stroke:#29255C;stroke-width:2.5;stroke-linecap:round;stroke-linejoin:round;stroke-miterlimit:10;}
</style>
<g id="Achtergrond">
	<path class="st0" d="M26,108.8c0,0-3.1-25.4,13.5-47.9c0,0,13.1-17.7,12.2-27.2c0,0-7.2-2-3.8-13.2c0,0,6.2-20.4,23.6-19.3
		c0,0,12-2.5,14.6,10.6l14.1,1.8c0,0,1.7,12.4-9.1,14c0,0-16.2-1.9-13.1,13.6c0,0,7.7,19.7,3,34.2c0,0-7.5,14.6-3.6,33.5L26,108.8z"
		/>
</g>
<g id="Hond">
	<g>
		<path class="st0" d="M26.4,95.2c0,0,0.4-6.6,3.3-13.9c2.9-7.3,7-15,9.5-19.4c2.6-4.4,10.3-16.1,11-18.7c0.7-2.6,1.8-8.8,1.8-8.8
			s-6.2-5.8-4.8-12.1C48.7,16.1,55,6.2,60.1,3.6s13.6-2.9,16.1-1.8c2.6,1.1,2.9,0,5.9,3.7c2.9,3.7,3.3,6.2,3.3,6.2l14.7,2.6
			c0,0,0,10.3-3.7,11.4s-8.1,1.5-8.8,1.5c-0.7,0-5.1-0.7-7.3,2.2c-2.2,2.9-2.2,4.1-2.6,5.9c-0.4,1.8-0.7,5.8,0.7,10.2
			c1.5,4.4,4,15,2.9,23.8S76.2,82.1,76.2,88s1.1,20.9,1.1,20.9H26L26.4,95.2z"/>
		<path class="st1" d="M20.7,63c0,0-19.4,0-19.4,22.9S26,108.8,26,108.8v-5.3c0-37,25.7-50.8,25.7-69.5 M68.3,13.6
			c0,0,0,21.2-10.6,21.2c-5.3,0-11.4-1.8-10.6-8.8C48.9,10.1,61.2,1.3,66.5,1.3h7.1C84.1,1.3,86,11.9,86,11.9l14.1,1.8
			c0,0,1.8,14.1-10.6,14.1s-11.7,6.6-11.7,12.1s4.6,12.6,4.6,21.4c0,15.9-3.4,16.8-5.3,26.5c-1.8,8.8,0,21.2,0,21.2h10.6"/>
	</g>
	<line class="st1" x1="77.1" y1="13.6" x2="77.1" y2="10"/>
	<g>
		<path class="st1" d="M76.6,108.8H26.4 M78.3,43.5c0,0-2.9,1.8-13.5,1.8s-14.1-3.5-14.1-3.5 M56,108.8
			c14.1-35.3-10.6-35.3-10.6-35.3"/>
	</g>
</g>
</svg>
