<?xml version="1.0" encoding="utf-8"?>
<!-- Generator: Adobe Illustrator 25.4.8, SVG Export Plug-In . SVG Version: 6.00 Build 0)  -->
<svg version="1.1" id="Laag_1" xmlns="http://www.w3.org/2000/svg" xmlns:xlink="http://www.w3.org/1999/xlink" x="0px" y="0px"
	 viewBox="0 0 40 40" style="enable-background:new 0 0 40 40;" xml:space="preserve">
<style type="text/css">
	.st0{clip-path:url(#SVGID_00000109000900965484180980000014785671744868604331_);fill:none;stroke:#283583;stroke-width:1.683;}
	.st1{fill:none;stroke:#283583;stroke-width:1.683;}
	.st2{fill:#283583;}
</style>
<g>
	<defs>
		<rect id="SVGID_1_" x="0.8" y="0.6" width="39.2" height="39.2"/>
	</defs>
	<clipPath id="SVGID_00000135682554455895235790000004609723676468548030_">
		<use xlink:href="#SVGID_1_"  style="overflow:visible;"/>
	</clipPath>
	
		<circle style="clip-path:url(#SVGID_00000135682554455895235790000004609723676468548030_);fill:none;stroke:#283583;stroke-width:1.683;" cx="20.4" cy="20.2" r="18.8"/>
</g>
<polygon class="st1" points="12.2,14.2 12.2,30.1 27.2,30.1 27.2,8.8 18.5,8.8 "/>
<g>
	<path class="st2" d="M16.1,22.1h0.7c0,0,0-0.2,0-0.3c0-0.1,0-0.4,0-0.4h-0.7v-0.9H17c0.5-1.7,2-2.9,3.9-2.9c0.6,0,1.1,0.1,1.1,0.1
		L21.6,19c0,0-0.4-0.1-0.8-0.1c-1.1,0-1.9,0.6-2.3,1.6h2.8l-0.2,0.9h-2.9c0,0,0,0.2,0,0.3c0,0.1,0,0.4,0,0.4H21l-0.2,0.9h-2.3
		c0.4,1,1.2,1.6,2.3,1.6c0.6,0,1.1-0.2,1.1-0.2l0.3,1.3c0,0-0.6,0.2-1.4,0.2c-1.9,0-3.4-1.2-3.9-3h-0.9V22.1z"/>
</g>
</svg>
