<?xml version="1.0" encoding="utf-8"?>
<!-- Generator: Adobe Illustrator 25.4.8, SVG Export Plug-In . SVG Version: 6.00 Build 0)  -->
<svg version="1.1" id="Laag_1" xmlns="http://www.w3.org/2000/svg" xmlns:xlink="http://www.w3.org/1999/xlink" x="0px" y="0px"
	 viewBox="0 0 40 40" style="enable-background:new 0 0 40 40;" xml:space="preserve">
<style type="text/css">
	.st0{clip-path:url(#SVGID_00000136394465403977935100000008356098159575392132_);fill:none;stroke:#FDC500;stroke-width:1.683;}
	
		.st1{clip-path:url(#SVGID_00000136394465403977935100000008356098159575392132_);fill:none;stroke:#FDC500;stroke-width:1.683;stroke-linejoin:round;stroke-miterlimit:10;}
	
		.st2{clip-path:url(#SVGID_00000136394465403977935100000008356098159575392132_);fill:none;stroke:#FDC500;stroke-width:1.683;stroke-miterlimit:10;}
</style>
<g>
	<defs>
		<rect id="SVGID_1_" x="0.8" y="0.6" width="39.2" height="39.2"/>
	</defs>
	<clipPath id="SVGID_00000034795110805837770910000013619698500511690886_">
		<use xlink:href="#SVGID_1_"  style="overflow:visible;"/>
	</clipPath>
	
		<circle style="clip-path:url(#SVGID_00000034795110805837770910000013619698500511690886_);fill:none;stroke:#FDC500;stroke-width:1.683;" cx="20.4" cy="20.2" r="18.8"/>
	
		<path style="clip-path:url(#SVGID_00000034795110805837770910000013619698500511690886_);fill:none;stroke:#FDC500;stroke-width:1.683;stroke-linejoin:round;stroke-miterlimit:10;" d="
		M29.7,25.8l-2.3-2.3l-2.3,2.3 M15,25.8l-2.3-2.3l-2.3,2.3 M27.5,23.5v4.5c0,1.3-1,2.3-2.3,2.3h-1.1 M24.1,30.4H15
		c-1.3,0-2.3-1-2.3-2.3v-4.5"/>
	
		<path style="clip-path:url(#SVGID_00000034795110805837770910000013619698500511690886_);fill:none;stroke:#FDC500;stroke-width:1.683;stroke-miterlimit:10;" d="
		M18.9,24.7v-2.8c0-1.6-3.7-2.3-5.7-2.3s-5.7,0.7-5.7,2.3v2.8 M32.6,24.7v-2.8c0-1.6-3.7-2.3-5.7-2.3s-5.7,0.7-5.7,2.3v2.8
		 M26.9,17.9c1.6,0,2.8-1.2,2.8-2.8v-1.1c0-1.6-1.3-2.8-2.8-2.8c-1.6,0-2.8,1.2-2.8,2.8V15C24.1,16.6,25.3,17.9,26.9,17.9z
		 M13.3,17.9c1.6,0,2.8-1.2,2.8-2.8v-1.1c0-1.6-1.3-2.8-2.8-2.8s-2.8,1.2-2.8,2.8V15C10.4,16.6,11.7,17.9,13.3,17.9z"/>
</g>
</svg>
