<?xml version="1.0" encoding="utf-8"?>
<!-- Generator: Adobe Illustrator 25.4.8, SVG Export Plug-In . SVG Version: 6.00 Build 0)  -->
<svg version="1.1" id="Laag_1" xmlns="http://www.w3.org/2000/svg" xmlns:xlink="http://www.w3.org/1999/xlink" x="0px" y="0px"
	 viewBox="0 0 40 42" style="enable-background:new 0 0 40 42;" xml:space="preserve">
<style type="text/css">
	.st0{clip-path:url(#SVGID_00000036967354250764419730000010940167082141805194_);fill:none;stroke:#0093D4;stroke-width:1.683;}
	.st1{clip-path:url(#SVGID_00000036967354250764419730000010940167082141805194_);fill:#FFFFFF;}
</style>
<g>
	<defs>
		<rect id="SVGID_1_" x="0.5" y="1" width="39.2" height="39.2"/>
	</defs>
	<clipPath id="SVGID_00000066518065365696374380000006066400361141323963_">
		<use xlink:href="#SVGID_1_"  style="overflow:visible;"/>
	</clipPath>
	
		<circle style="clip-path:url(#SVGID_00000066518065365696374380000006066400361141323963_);fill:none;stroke:#0093D4;stroke-width:1.683;" cx="20.1" cy="20.6" r="18.8"/>
	
		<path style="clip-path:url(#SVGID_00000066518065365696374380000006066400361141323963_);fill:none;stroke:#0093D4;stroke-width:1.683;" d="
		M30.3,21.3h0.9c0.3,0,0.5-0.2,0.5-0.5c0-0.3-0.2-0.5-0.5-0.5l-1.1,0c-1.1-3.4-4.6-5.8-8.8-5.6c-2.2,0.1-4.2,0.9-5.7,2.1l-0.1-0.1
		c-0.9-1.2-2-2.3-3.2-3.3c-0.2-0.2-0.6-0.1-0.7,0.1c-0.1,0.1-0.1,0.2-0.1,0.3V19c-0.9,0.7-1.8,1.6-2.5,2.4H7.3
		c-0.3,0-0.5,0.2-0.5,0.5v3.9c0,0.2,0.1,0.4,0.3,0.5l7.2,3.1v1.3c0,0.9,0.7,1.5,1.5,1.5h1.6c0.9,0,1.5-0.7,1.5-1.5v-1.1h4v1.1
		c0,0.9,0.7,1.5,1.5,1.5h1.6c0.8,0,1.5-0.7,1.5-1.5l0-2.8c1.7-1.5,2.7-3.5,2.7-5.8C30.3,21.9,30.3,21.3,30.3,21.3z"/>
	<path style="clip-path:url(#SVGID_00000066518065365696374380000006066400361141323963_);fill:#FFFFFF;" d="M21.7,16.7
		c2.7,0,4.9-2.2,4.9-4.9c0-2.7-2.2-4.9-4.9-4.9s-4.9,2.2-4.9,4.9C16.8,14.5,19,16.7,21.7,16.7"/>
	
		<path style="clip-path:url(#SVGID_00000066518065365696374380000006066400361141323963_);fill:none;stroke:#0093D4;stroke-width:1.683;" d="
		M21.7,16.7c2.7,0,4.9-2.2,4.9-4.9c0-2.7-2.2-4.9-4.9-4.9s-4.9,2.2-4.9,4.9C16.8,14.5,19,16.7,21.7,16.7z"/>
</g>
</svg>
