<?xml version="1.0" encoding="utf-8"?>
<!-- Generator: Adobe Illustrator 26.5.0, SVG Export Plug-In . SVG Version: 6.00 Build 0)  -->
<svg version="1.1" xmlns="http://www.w3.org/2000/svg" xmlns:xlink="http://www.w3.org/1999/xlink" x="0px" y="0px"
	 viewBox="0 0 110 337.5" style="enable-background:new 0 0 110 337.5;" xml:space="preserve">
<style type="text/css">
	.st0{fill:#FFFFFF;}
	.st1{fill:#B0D2F0;}
	.st2{fill:none;stroke:#29235C;stroke-width:2.5;stroke-linecap:round;stroke-miterlimit:10;}
	.st3{fill:none;stroke:#29235C;stroke-width:2.5;stroke-linecap:round;stroke-linejoin:round;stroke-miterlimit:10;}
	.st4{fill:none;stroke:#B0D2F0;stroke-width:2.5;stroke-linecap:round;stroke-linejoin:round;stroke-miterlimit:10;}
</style>
<g id="Laag_2">
	<path class="st0" d="M21.8,320.8l0-109.4c0,0-21-3.3-19.9-20.4C17,191,108,191,108,191s-2.4,19.5-20.2,19.7
		c0.2,11.3-0.5,110.1-0.5,110.1H21.8z"/>
	<path class="st0" d="M90.5,35.4c0-14.7-11.9-26.7-26.7-26.7c0,0-25-0.3-35.1-6.4c-2.3,3.7-3.7,8.1-3.7,12.9c0,7.1,3,13.5,7.9,17.9
		l-2.4,0.7c-2.5,5.1-3.9,11-3.9,17.4c0,18.8,12.5,34.1,28,34.1c14.7,0,26.8-13.8,27.9-31.4l0.2,0.4C87.6,49.4,90.5,42.8,90.5,35.4z"
		/>
</g>
<g id="Laag_1">
	<path class="st1" d="M97.4,327.2c0,4.8-3.9,8.8-8.8,8.8H21.2c-4.8,0-8.8-3.9-8.8-8.8v-1c0-4.8,3.9-8.8,8.8-8.8h67.4
		c4.8,0,8.8,3.9,8.8,8.8V327.2z"/>
	<rect x="87.8" y="222" class="st1" width="20.9" height="71"/>
	<rect x="87.8" y="222" class="st2" width="20.9" height="71"/>
	<line class="st3" x1="98.3" y1="199.5" x2="98.3" y2="221.9"/>
	<path class="st1" d="M107.5,191.1v-68c0-17.7-14.4-32.1-32.1-32.1l0,0c-11.5,11.5-30.2,11.5-41.7,0l0,0C16,90.9,1.6,105.3,1.6,123
		v68H107.5z"/>
	<path class="st4" d="M107.5,191.1v-68c0-17.7-14.4-32.1-32.1-32.1l0,0c-11.5,11.5-30.2,11.5-41.7,0l0,0C16,90.9,1.6,105.3,1.6,123
		v68H107.5z"/>
	<path class="st3" d="M107.5,191.1v-68c0-17.7-14.4-32.1-32.1-32.1l0,0c-11.5,11.5-30.2,11.5-41.7,0l0,0C16,90.9,1.6,105.3,1.6,123
		v68H107.5z"/>
	<path class="st3" d="M33.7,92.6l8.1,18.6l11.7-11.4 M44.3,109.9l5.4,5.1l-3.8,60.3l8.7,7.7 M75.4,92.6l-8.1,18.6L55.6,99.8
		 M64.8,109.9l-5.4,5.1l3.8,60.3l-8.7,7.7 M49.7,115h9.7 M21.8,210.7c-11.1,0-20.2-8.8-20.2-19.7 M87.3,210.7
		c11.1,0,20.2-8.8,20.2-19.7 M87.3,127.8v188.4 M21.8,127.8v188.4 M70.2,22.7c7.5,6.1,12.4,16.5,12.4,28.3C82.6,69.8,70,85,54.6,85
		c-15.5,0-28-15.3-28-34.1c0-6.3,1.4-12.3,3.9-17.4 M82.6,54c4.8-4.8,7.8-11.5,7.8-18.8c0-14.7-11.9-26.7-26.7-26.7
		c0,0-25-0.3-35.1-6.4C26.4,5.9,25,10.3,25,15c0,13.5,10.9,24.4,24.4,24.4c9.7,0,18.1-5.7,22-13.8"/>
	<line class="st2" x1="55.2" y1="220.4" x2="55.2" y2="327"/>
	<path class="st2" d="M97.4,327.2c0,4.8-3.9,8.8-8.8,8.8H21.2c-4.8,0-8.8-3.9-8.8-8.8v-1c0-4.8,3.9-8.8,8.8-8.8h67.4
		c4.8,0,8.8,3.9,8.8,8.8V327.2z"/>
</g>
</svg>
