<?xml version="1.0" encoding="utf-8"?>
<!-- Generator: Adobe Illustrator 23.0.2, SVG Export Plug-In . SVG Version: 6.00 Build 0)  -->
<svg version="1.1" xmlns="http://www.w3.org/2000/svg" xmlns:xlink="http://www.w3.org/1999/xlink" x="0px" y="0px"
	 viewBox="0 0 96.3 211.3" style="enable-background:new 0 0 96.3 211.3;" xml:space="preserve">
<style type="text/css">
	.st0{fill:#FFFFFF;stroke:#29265B;stroke-width:2.9642;stroke-linecap:round;stroke-linejoin:round;stroke-miterlimit:10;}
	.st1{fill:#FFFFFF;stroke:#FFFFFF;stroke-width:0.7411;stroke-miterlimit:10;}
	.st2{fill:#FFFFFF;}
	.st3{fill:none;stroke:#29265B;stroke-width:2.9642;stroke-linecap:round;stroke-miterlimit:10;}
	.st4{fill:#B0D2F0;stroke:#29265B;stroke-width:2.9642;stroke-linecap:round;stroke-linejoin:round;stroke-miterlimit:10;}
	.st5{fill:#FFFFFF;stroke:#29265B;stroke-width:2.9642;stroke-linecap:round;stroke-miterlimit:10;}
</style>
<g id="Layer_2">
</g>
<g id="Laag_1">
	<g>
		<path class="st0" d="M5,48.4c1.4,4.8,5.6,8.4,10.9,8.9c6.8,0.5,12.7-4.5,13.3-11.3"/>
		<path class="st0" d="M5,48.4c3.2,0.3,6-2.1,6.2-5.3c0,0-2.1-18.7-0.6-24.6C13.1,8.8,20.1,1.1,30,1.9c5.5,0.4,10.2,3.3,13.2,7.4"/>
		<path class="st0" d="M75.2,124.1c15.1-30-9.2-53.4-9.2-53.4l-9,37.7L75.2,124.1z"/>
		<path class="st0" d="M32.4,70.7c0,0-24.2,23.4-9.2,53.4l10.5-10.6l2.7-32.1L32.4,70.7z"/>
		<path class="st0" d="M70.4,33.4c0,16.9-9.5,30.6-21.3,30.6S27.9,50.3,27.9,33.4l-0.2-1.9c0-11.8,9.6-21.4,21.4-21.4
			c11.8,0,21.4,9.6,21.4,21.4L70.4,33.4z"/>
		<path class="st1" d="M33,165.9l5.6,26.3h19.6l5.6-25.6C63.8,166.6,42.5,168.7,33,165.9"/>
		<path class="st2" d="M65.2,71.7c0,0-5.6,2.8-11.9,3.2c-6.3,0.3-13-0.7-13-0.7l-7.7-2.8c0,0,0,30.1-7,47.7S8.8,154.7,8.8,154.7
			s20,12.3,38.9,12.3s42.4-11.6,42.4-11.6S68.4,129.5,65.2,71.7"/>
		<line class="st3" x1="63.9" y1="166.2" x2="59.3" y2="191.2"/>
		<line class="st3" x1="33.1" y1="165.6" x2="37.9" y2="191.5"/>
		<path class="st4" d="M32.5,70.5c4.9,2.9,10.6,4.5,16.7,4.5s11.8-1.6,16.7-4.5l0.1,0.2c0,31.1,8.9,60,24.2,84.6v0.2
			c-10.2,7.2-24.7,11.7-40.9,11.7c-16.3,0-31-4.6-41.2-11.8c15.3-24.5,24.2-53.5,24.2-84.6L32.5,70.5z"/>
		<path class="st2" d="M66.6,200.8c1.1,4.5-1.8,8.1-6.5,8.1H37.6c-4.6,0-7.5-3.7-6.3-8.1l0.4-1.4c1.1-4.5,5.8-8.1,10.4-8.1H56
			c4.6,0,9.2,3.7,10.3,8.1L66.6,200.8z"/>
		<path class="st5" d="M66.6,200.8c1.1,4.5-1.8,8.1-6.5,8.1H37.6c-4.6,0-7.5-3.7-6.3-8.1l0.4-1.4c1.1-4.5,5.8-8.1,10.4-8.1H56
			c4.6,0,9.2,3.7,10.3,8.1L66.6,200.8z"/>
		<line class="st3" x1="48.7" y1="168.5" x2="48.7" y2="199.9"/>
		<path class="st5" d="M15.2,115.9"/>
		<path class="st0" d="M71.5,36c0,0-22.6,2-32.2-14.8c0,0-7.8,2.6-11,9.6"/>
		<path class="st4" d="M66.2,1.8"/>
	</g>
</g>
</svg>
