<?xml version="1.0" encoding="utf-8"?>
<!-- Generator: Adobe Illustrator 23.0.2, SVG Export Plug-In . SVG Version: 6.00 Build 0)  -->
<svg version="1.1" xmlns="http://www.w3.org/2000/svg" xmlns:xlink="http://www.w3.org/1999/xlink" x="0px" y="0px"
	 viewBox="0 0 96.3 211.3" style="enable-background:new 0 0 96.3 211.3;" xml:space="preserve">
<style type="text/css">
	.st0{fill:#FFFFFF;stroke:#29265B;stroke-width:2.9642;stroke-linecap:round;stroke-linejoin:round;stroke-miterlimit:10;}
	.st1{fill:#FFFFFF;stroke:#FFFFFF;stroke-width:0.7411;stroke-miterlimit:10;}
	.st2{fill:#FFFFFF;}
	.st3{fill:none;stroke:#29265B;stroke-width:2.9642;stroke-linecap:round;stroke-miterlimit:10;}
	.st4{fill:#B0D2F0;stroke:#29265B;stroke-width:2.9642;stroke-linecap:round;stroke-linejoin:round;stroke-miterlimit:10;}
	.st5{fill:#FFFFFF;stroke:#29265B;stroke-width:2.9642;stroke-linecap:round;stroke-miterlimit:10;}
</style>
<g id="Layer_2">
</g>
<g id="Laag_1">
	<g>
		<path class="st0" d="M74.9,121.1c15.7-31.2-9.5-55.7-9.5-55.7L56,104.7L74.9,121.1z"/>
		<path class="st0" d="M30.2,65.4c0,0-25.3,24.4-9.5,55.7l11-11l2.8-33.5L30.2,65.4z"/>
		<path class="st0" d="M69.9,26.5c0,17.6-9.9,31.9-22.2,31.9S25.5,44.1,25.5,26.5l-0.2-2c0-12.3,10-22.3,22.3-22.3
			C60,2.1,70,12.1,70,24.5L69.9,26.5z"/>
		<path class="st1" d="M30.8,164.7l5.9,27.4h20.5l5.8-26.7C63,165.5,40.7,167.7,30.8,164.7"/>
		<path class="st2" d="M64.5,66.4c0,0-5.8,2.9-12.4,3.3c-6.6,0.4-13.5-0.7-13.5-0.7l-8-2.9c0,0,0,31.4-7.3,49.7S5.6,153,5.6,153
			s20.8,12.8,40.6,12.8s44.2-12.1,44.2-12.1S67.8,126.7,64.5,66.4"/>
		<line class="st3" x1="63.1" y1="165" x2="58.3" y2="191.1"/>
		<line class="st3" x1="30.9" y1="164.3" x2="35.9" y2="191.4"/>
		<path class="st4" d="M30.3,65.2c5.1,3,11.1,4.7,17.4,4.7s12.3-1.7,17.4-4.7l0.1,0.2c0,32.4,9.3,62.6,25.3,88.2v0.2
			c-10.6,7.5-25.8,12.2-42.7,12.2c-17,0-32.3-4.8-42.9-12.4C21,128,30.2,97.8,30.2,65.4L30.3,65.2z"/>
		<path class="st2" d="M65.9,201.1c1.1,4.7-1.9,8.5-6.7,8.5H35.7c-4.8,0-7.8-3.8-6.6-8.5l0.4-1.5c1.2-4.7,6.1-8.5,10.9-8.5h14.5
			c4.8,0,9.6,3.8,10.7,8.5L65.9,201.1z"/>
		<path class="st5" d="M65.9,201.1c1.1,4.7-1.9,8.5-6.7,8.5H35.7c-4.8,0-7.8-3.8-6.6-8.5l0.4-1.5c1.2-4.7,6.1-8.5,10.9-8.5h14.5
			c4.8,0,9.6,3.8,10.7,8.5L65.9,201.1z"/>
		<line class="st3" x1="47.2" y1="167.4" x2="47.2" y2="200.2"/>
		<path class="st0" d="M46.6,15.5c0,0,5.3,4.7,9.9,6.1c4.6,1.4,33.5,5.7,32,36.2l-0.2,2.3c-5.2-0.8-11.6-2.7-14.3-7.2
			C67.9,43,70.5,39.3,70,25"/>
		<path class="st0" d="M47.7,15.5c0,0-5.3,4.7-9.9,6.1c-4.6,1.4-33.5,5.7-32,36.2l-0.2,2.5c5.4-0.7,12.8-2.5,15.8-7.4
			c6.1-9.9,3.6-13.6,4-27.9"/>
		<path class="st5" d="M12.3,112.5"/>
	</g>
</g>
</svg>
