<?xml version="1.0" encoding="utf-8"?>
<!-- Generator: Adobe Illustrator 23.0.2, SVG Export Plug-In . SVG Version: 6.00 Build 0)  -->
<svg version="1.1" xmlns="http://www.w3.org/2000/svg" xmlns:xlink="http://www.w3.org/1999/xlink" x="0px" y="0px"
	 viewBox="0 0 96.3 211.3" style="enable-background:new 0 0 96.3 211.3;" xml:space="preserve">
<style type="text/css">
	.st0{fill:#FFFFFF;stroke:#29265B;stroke-width:2.9642;stroke-linecap:round;stroke-linejoin:round;stroke-miterlimit:10;}
	.st1{fill:#FFFFFF;stroke:#FFFFFF;stroke-width:0.7411;stroke-miterlimit:10;}
	.st2{fill:none;stroke:#29265B;stroke-width:2.9642;stroke-linecap:round;stroke-miterlimit:10;}
	.st3{fill:#B0D2F0;stroke:#29265B;stroke-width:2.9642;stroke-linecap:round;stroke-linejoin:round;stroke-miterlimit:10;}
	.st4{fill:#FFFFFF;}
	.st5{fill:#FFFFFF;stroke:#29265B;stroke-width:2.9642;stroke-linecap:round;stroke-miterlimit:10;}
</style>
<g id="Layer_2">
</g>
<g id="Laag_1">
	<g>
		<circle class="st0" cx="47.3" cy="10.3" r="8.5"/>
		<path class="st0" d="M73.9,124.7c15.1-29.9-9.1-53.4-9.1-53.4l-9,37.7L73.9,124.7z"/>
		<path class="st0" d="M31,71.3c0,0-24.2,23.4-9.1,53.4l10.5-10.6L35.1,82L31,71.3z"/>
		<path class="st0" d="M69,34c0,16.9-9.5,30.6-21.2,30.6S26.5,50.9,26.5,34l-0.2-1.9c0-11.8,9.6-21.4,21.4-21.4
			c11.8,0,21.4,9.6,21.4,21.4L69,34z"/>
		<path class="st1" d="M31.6,166.5l5.6,26.3h19.6l5.6-25.6C62.5,167.2,41.1,169.3,31.6,166.5"/>
		<line class="st2" x1="62.5" y1="166.8" x2="57.9" y2="191.8"/>
		<line class="st2" x1="31.7" y1="166.1" x2="36.5" y2="192.1"/>
		<path class="st3" d="M31.2,71.1c4.9,2.9,10.6,4.5,16.7,4.5s11.8-1.6,16.7-4.5l0.1,0.2c0,18.7,3.2,36.7,9.1,53.4l-11.3,41.6
			c0,0-26.4-0.1-30.8-0.1l0,0l0,0l-9.8-41.5c5.9-16.7,9.1-34.7,9.1-53.4L31.2,71.1z"/>
		<path class="st4" d="M65.2,201.4c1.1,4.5-1.8,8.1-6.4,8.1H36.3c-4.6,0-7.5-3.7-6.3-8.1l0.4-1.4c1.1-4.5,5.8-8.1,10.4-8.1h13.9
			c4.6,0,9.2,3.7,10.3,8.1L65.2,201.4z"/>
		<path class="st5" d="M65.2,201.4c1.1,4.5-1.8,8.1-6.4,8.1H36.3c-4.6,0-7.5-3.7-6.3-8.1l0.4-1.4c1.1-4.5,5.8-8.1,10.4-8.1h13.9
			c4.6,0,9.2,3.7,10.3,8.1L65.2,201.4z"/>
		<line class="st2" x1="47.3" y1="128" x2="47.3" y2="200.5"/>
		<path class="st0" d="M26.4,31c0,0,10.2,5.4,19.3-6.2c0,0,1.5,4-1.3,7.4c0,0,3.1,1.1,7.8-7.4c0,0,2.6,6.4,15.1,6.4"/>
		<polyline class="st3" points="39,87.1 39,98.2 56.1,98.2 56.1,87.1 		"/>
	</g>
</g>
</svg>
