<?xml version="1.0" encoding="utf-8"?>
<!-- Generator: Adobe Illustrator 26.5.0, SVG Export Plug-In . SVG Version: 6.00 Build 0)  -->
<svg version="1.1" id="Laag_1" xmlns="http://www.w3.org/2000/svg" xmlns:xlink="http://www.w3.org/1999/xlink" x="0px" y="0px"
	 viewBox="0 0 133.8 106.2" style="enable-background:new 0 0 133.8 106.2;" xml:space="preserve">
<style type="text/css">
	.st0{fill:#FFFFFF;}
	.st1{fill:none;stroke:#29235C;stroke-width:2.5;stroke-linecap:round;stroke-miterlimit:10;}
	.st2{fill:none;stroke:#29235C;stroke-width:2.5;stroke-miterlimit:10;}
</style>
<rect x="61.2" y="76.6" class="st0" width="11.7" height="21.6"/>
<rect x="61.2" y="76.6" class="st1" width="11.7" height="21.6"/>
<path class="st0" d="M132.5,69.2c0,4.6-3.8,8.4-8.4,8.4h-114c-4.6,0-8.4-3.8-8.4-8.4V9.7c0-4.6,3.8-8.4,8.4-8.4h114
	c4.6,0,8.4,3.8,8.4,8.4V69.2z"/>
<path class="st2" d="M132.5,69.2c0,4.6-3.8,8.4-8.4,8.4h-114c-4.6,0-8.4-3.8-8.4-8.4V9.7c0-4.6,3.8-8.4,8.4-8.4h114
	c4.6,0,8.4,3.8,8.4,8.4V69.2z"/>
<path class="st1" d="M132.5,69.2c0,4.6-3.8,8.4-8.4,8.4h-114c-4.6,0-8.4-3.8-8.4-8.4V57.6V9.7c0-4.6,3.8-8.4,8.4-8.4h114
	c4.6,0,8.4,3.8,8.4,8.4V69.2z"/>
<path class="st0" d="M40.3,104.7v-3.2c0-1.8,3.8-3.2,8.4-3.2h35.1c4.6,0,8.4,1.5,8.4,3.2v3.2"/>
<path class="st2" d="M40.3,104.7v-3.2c0-1.8,3.8-3.2,8.4-3.2h35.1c4.6,0,8.4,1.5,8.4,3.2v3.2"/>
<path class="st1" d="M40.3,104.7v-3.2c0-1.8,3.8-3.2,8.4-3.2h35.1c4.6,0,8.4,1.5,8.4,3.2v3.2"/>
<path class="st1" d="M13.4,60.2l10-8.6l17.9,6l23.2-19.9l6,3.3l6-3.3l9.3,8c2-2.7,27.2-29.2,27.2-29.2"/>
<path class="st1" d="M105.4,16.4"/>
<g>
	<line class="st1" x1="113.7" y1="15.8" x2="113.7" y2="23.3"/>
	<line class="st1" x1="106.2" y1="15.8" x2="113.7" y2="15.8"/>
</g>
<path class="st1" d="M10.1,17.8"/>
<polyline class="st1" points="13.4,12.5 13.4,66.9 112.3,66.9 "/>
</svg>
