<?xml version="1.0" encoding="utf-8"?>
<!-- Generator: Adobe Illustrator 26.5.0, SVG Export Plug-In . SVG Version: 6.00 Build 0)  -->
<svg version="1.1" id="Laag_1" xmlns="http://www.w3.org/2000/svg" xmlns:xlink="http://www.w3.org/1999/xlink" x="0px" y="0px"
	 viewBox="0 0 58 68" style="enable-background:new 0 0 58 68;" xml:space="preserve">
<style type="text/css">
	.st0{clip-path:url(#SVGID_00000064350424639815006950000003981294509519658938_);fill:#342F60;}
	
		.st1{clip-path:url(#SVGID_00000064350424639815006950000003981294509519658938_);fill:none;stroke:#FFFFFF;stroke-width:0.105;stroke-miterlimit:10;}
</style>
<g>
	<defs>
		<rect id="SVGID_1_" x="0.5" y="2.8" width="56.2" height="63.6"/>
	</defs>
	<clipPath id="SVGID_00000101803982333682504770000003202983061869964447_">
		<use xlink:href="#SVGID_1_"  style="overflow:visible;"/>
	</clipPath>
	<path style="clip-path:url(#SVGID_00000101803982333682504770000003202983061869964447_);fill:#342F60;" d="M49.8,39
		c-0.8,1.3-1.8,2.6-2.9,3.7c-1.4,1.5-4,0.5-4.1-1.6c0-1.9,2-2,3.8-6.3c-0.2-0.3-0.5-0.5-0.7-0.8c-2.1,1.2-4.6,1.3-6.8,0.1
		c-7.2,8-10,16.3-8.9,26.4c1.5-0.9,2.9-0.9,4.6,0.3c1.8-1.3,3.3-1.3,5.1,0c1.8-1.3,3.3-1.3,5.1,0c1.8-1.3,3.3-1.3,5.1,0
		c1.7-1.2,3.1-1.2,4.6-0.3C55.7,52.4,54.1,45.5,49.8,39 M54.1,64.7c0.2-0.8,0.3-1.7,0.4-2.5c-1.3-1-2.4-1.1-3.8,0.2
		c-0.3,0.3-0.8,0.3-1.1,0c-0.3-0.3-1.2-1-2-1c-0.8,0-1.7,0.7-2,1c-0.3,0.3-0.8,0.3-1.1,0c-0.3-0.3-1.2-1-2-1c-0.8,0-1.8,0.7-2,1
		c-0.3,0.3-0.8,0.3-1.1,0c-0.3-0.3-1.2-1-2-1c-0.8,0-1.7,0.7-2,1c-0.3,0.3-0.8,0.3-1.1,0c-1.4-1.3-2.5-1.2-3.8-0.2
		c0.1,0.8,0.3,1.7,0.4,2.5H54.1z M38.9,28.5c0.5,1.3,0.7,2.6,0.9,4c1.7,1.1,3.9,1.1,5.6-0.1c0.2-2.2,0.7-3.7,1.4-5.3
		c0.6-1.4,0.5-1.7,0.5-1.7c0-0.8-0.3-1.8-1-2.2c-0.9-0.5-2.2-0.1-3.1,0.8c-0.3,0.4-1,0.3-1.3,0c-1.3-1.4-3.7-1.7-4.1,0.9
		C37.6,26.1,38.2,26.7,38.9,28.5 M47.2,33.1c0.3-1.2,0.5-2.2,0.4-3.9c-0.4,1.1-0.6,2.3-0.7,3.5C47,32.8,47.1,32.9,47.2,33.1
		 M29.6,37.4l-0.7-0.7l-1.5,1.5c0.7,0.7,0.9,1,1.5,1C29.8,39.2,30.2,38,29.6,37.4 M26.3,37l1.5-1.5c-1.9-2.8-3.1-5.9-3.8-9.3
		c-0.9-4.7-0.3-4-4.2-5l-1.3,3.4c-0.1,0.3-0.3,0.4-0.6,0.5c-0.5,0.1-0.8-0.3-1.4-1l-0.5,0.5l0.8,10.7c0,0.2-0.1,0.5-0.2,0.6
		c-2.4,2.4-1.9,2.4-4.3,0c-0.4-0.4-0.3,0.1,0.5-11.3l-0.5-0.5l-0.6,0.6c-0.4,0.4-1.1,0.3-1.3-0.3l-1.3-3.4C4.8,22.3,6,21.2,4.3,29
		c-0.4,1.7-0.8,3.8-2,9.4c0.4,0.1,0.1,0,2.3,0.5c2.7-12.4,2.3-10.6,2.5-11.9c0-0.1,0.1-0.2,0.1-0.3c0-0.1,0.1-0.2,0.2-0.2
		c0.1-0.1,0.2-0.1,0.3-0.1c0,0,0.1,0,0.1,0c0,0,0.1,0,0.2,0c0,0,0.1,0,0.2,0c0.1,0,0.2,0.1,0.2,0.2c0.1,0.1,0.1,0.2,0.2,0.2
		c0,0.1,0.1,0.2,0.1,0.3l0.8,12.2h9.9l0.8-12.5c0-0.4,0.4-0.8,0.8-0.7c0.4,0,0.8,0.4,0.7,0.8C21.9,27.2,22.5,31.9,26.3,37 M18,61.7
		l1.3-20.9H9.6l1.3,20.9c0.4,0-0.7,0,2.8,0V45.5c0-1,1.6-1,1.6,0v16.2C18.6,61.7,17.6,61.7,18,61.7 M15.3,63.3c0,1-1.5,1-1.6,0
		c-3.8,0-2.6-0.3-5.8,1.4h13C17.9,63,19,63.3,15.3,63.3 M4.3,40.3l-2.2-0.4c0,1.2,0.7,2.3,1.8,2.8L4.3,40.3z M17.5,22.9l0.3-0.9
		c-0.3,0.1-0.6,0.2-0.8,0.3L17.5,22.9z M13.7,35.1l0.8,0.8l0.8-0.8l-0.7-10h-0.1L13.7,35.1z M13.5,23.1l0.5,0.5h1l0.5-0.5L15,22.7
		c-0.4,0-0.9,0-1.3,0L13.5,23.1z M11.9,22.4c-0.3-0.1-0.5-0.2-0.8-0.3l0.3,0.8C11.6,22.8,11.9,22.5,11.9,22.4 M50.7,37.4
		c5.7,8.3,7.3,17.3,4.9,28.2c-0.1,0.4-0.4,0.6-0.8,0.6H30.3c-0.4,0-0.7-0.3-0.8-0.6c-2.9-13-0.2-23.2,8.7-33
		c-0.1-1.2-0.3-2.3-0.7-3.4c-1.3,4-3.6,7.5-6.6,10.4c-0.5,0.7-1.3,1-2.1,1c-0.7,0-1.4-0.3-1.9-0.8c-0.1-0.1-1.3-1.2-1.3-1.3
		c-1.2-1.3-3-4.1-4.2-7.2l-1.9,30.6c0.3,0.2-0.7-0.4,2.5,1.4c1.4,0.7,0.9,2.8-0.7,2.8H7.5c-1.6,0-2.1-2.1-0.7-2.8
		c3.2-1.8,2.2-1.2,2.5-1.4L7.5,32.9c0,0.1-1.5,7-1.5,7s0-0.1-0.8,4c-0.3,1.4-2.9,0.2-3.9-1.4c-0.9-1.3-0.9-2.5-0.6-3.9
		c1.9-9.6,2-9.2,3.3-15.7c0.2-1.2,1.2-2.2,2.4-2.5c3-0.7,3.2-0.8,3.5-0.7c0.5,0.1,1.1,1.2,3.8,1.6c1.6,0.2,3.5-0.2,5-1.4
		c0.2-0.2,0.6-0.2,0.8-0.1l3.1,0.7c4,1,1.3,6.1,6.3,14c7.2-7.9,1.5-13,9.2-15.5c0.6-0.2,1.2,0.4,1,1.1c-0.1,0.3-0.4,0.5-0.7,0.5
		c-6.1,2.1-0.7,6.9-8.4,15.1c0.8,0.8,1.1,1,1.3,1.5c2.5-3,4.3-6.4,5.3-10.2c-1.5-4,2.5-7.3,6-4.4c2.8-2.3,6.4-0.8,6.3,2.8
		c0.1,0.3,0.1,0.7,0.1,1.1c0.2,2.4,0.4,4.1-0.1,6.2c-0.2,0.9-0.4,1.5-0.7,2.3c-0.8,2-1.9,3.8-3.6,5.5c-0.3,0.3-0.3,0.8,0,1.1
		c0.3,0.3,0.8,0.3,1.1,0c2.4-2.4,4-5.3,4.7-8.6c0.5-2.3,0.3-4.1,0.1-6.6c-0.3-2.9-1.1-5-4.3-6.2c-1-0.4-0.4-1.8,0.6-1.5
		c1.7,0.6,3,1.6,3.9,2.9c0.9,1.3,1.2,2.8,1.4,4.6C52.4,29.3,52.9,32.8,50.7,37.4 M46.2,12.3c-1.4-0.8-2.6-1.8-3.7-3.1
		c-1.1,1.3-2.3,2.3-3.7,3.1c0,0,0,0.1,0,0.1c0.3,2.6,1.9,4.5,3.7,4.5C44.3,16.9,45.9,14.9,46.2,12.3 M48.3,11.6
		c0.4,0.2,0.6,0.6,0.4,1c-0.2,0.4-0.6,0.6-1,0.4c-1.3,7.2-9,7.2-10.3,0c-1,0.5-1.6-1-0.7-1.4c1.1-0.5,2-1.1,2.9-1.8
		c2.2-1.8,2-2.6,2.8-2.6c0.8-0.1,0.7,0.8,2.9,2.6C46.2,10.5,47.2,11.1,48.3,11.6 M32.5,25.9C32,19,36.4,8.7,37,7.6
		c2.1-4,8.9-3.9,11,0c0.6,1.1,5,11.4,4.5,18.3c0,0.5,0.3,0.8,0.8,0.8c0.4,0,0.8-0.3,0.8-0.7c0.6-8-4.6-19.1-4.7-19.2
		c-2.7-5-11.1-5.1-13.8,0c-0.1,0.1-5.2,11.2-4.7,19.2C31,27.1,32.6,27,32.5,25.9 M8.3,10.2c0.5-1.5,2.2-4.1,3.2-3
		c0.7,0.8,1.6,1.5,2.5,1.8c1.2,0.2,2.1-0.8,1.9-1.9c-0.1-0.4,0.2-0.8,0.6-0.9c1.3-0.2,1.2,1.9,0.4,3c2.1-0.6,2.6-2.5,2-4.6
		c-3.5,1.4-5.9,0.7-7.1,0.7c-1.9,0-3.2,1.7-3.6,3.1C8.3,9,8.3,9.6,8.3,10.2 M18.7,10.3c-2.2,1.3-5.5,0.8-7.8-1.4
		c-2.8,3.1-0.9,9.5,3.5,9.5C18,18.4,20.3,14,18.7,10.3 M8.1,13.4C7.5,12.7,6.2,10.5,6.9,8c0,0,0.7-2.7,3.2-3.8
		c1.2-0.5,2.1-0.4,3.1-0.3c5.2,0.6,6.4-2.1,7-0.6c0.9,2.1,0.8,4.4-0.3,5.9c2.4,4.7-0.6,10.8-5.5,10.8C11.1,20,8.3,17.1,8.1,13.4"/>
	
		<path style="clip-path:url(#SVGID_00000101803982333682504770000003202983061869964447_);fill:none;stroke:#FFFFFF;stroke-width:0.105;stroke-miterlimit:10;" d="
		M49.8,39c-0.8,1.3-1.8,2.6-2.9,3.7c-1.4,1.5-4,0.5-4.1-1.6c0-1.9,2-2,3.8-6.3c-0.2-0.3-0.5-0.5-0.7-0.8c-2.1,1.2-4.6,1.3-6.8,0.1
		c-7.2,8-10,16.3-8.9,26.4c1.5-0.9,2.9-0.9,4.6,0.3c1.8-1.3,3.3-1.3,5.1,0c1.8-1.3,3.3-1.3,5.1,0c1.8-1.3,3.3-1.3,5.1,0
		c1.7-1.2,3.1-1.2,4.6-0.3C55.7,52.4,54.1,45.5,49.8,39z M54.1,64.7c0.2-0.8,0.3-1.7,0.4-2.5c-1.3-1-2.4-1.1-3.8,0.2
		c-0.3,0.3-0.8,0.3-1.1,0c-0.3-0.3-1.2-1-2-1c-0.8,0-1.7,0.7-2,1c-0.3,0.3-0.8,0.3-1.1,0c-0.3-0.3-1.2-1-2-1c-0.8,0-1.8,0.7-2,1
		c-0.3,0.3-0.8,0.3-1.1,0c-0.3-0.3-1.2-1-2-1c-0.8,0-1.7,0.7-2,1c-0.3,0.3-0.8,0.3-1.1,0c-1.4-1.3-2.5-1.2-3.8-0.2
		c0.1,0.8,0.3,1.7,0.4,2.5H54.1z M38.9,28.5c0.5,1.3,0.7,2.6,0.9,4c1.7,1.1,3.9,1.1,5.6-0.1c0.2-2.2,0.7-3.7,1.4-5.3
		c0.6-1.4,0.5-1.7,0.5-1.7c0-0.8-0.3-1.8-1-2.2c-0.9-0.5-2.2-0.1-3.1,0.8c-0.3,0.4-1,0.3-1.3,0c-1.3-1.4-3.7-1.7-4.1,0.9
		C37.6,26.1,38.2,26.7,38.9,28.5z M47.2,33.1c0.3-1.2,0.5-2.2,0.4-3.9c-0.4,1.1-0.6,2.3-0.7,3.5C47,32.8,47.1,32.9,47.2,33.1z
		 M29.6,37.4l-0.7-0.7l-1.5,1.5c0.7,0.7,0.9,1,1.5,1C29.8,39.2,30.2,38,29.6,37.4z M26.3,37l1.5-1.5c-1.9-2.8-3.1-5.9-3.8-9.3
		c-0.9-4.7-0.3-4-4.2-5l-1.3,3.4c-0.1,0.3-0.3,0.4-0.6,0.5c-0.5,0.1-0.8-0.3-1.4-1l-0.5,0.5l0.8,10.7c0,0.2-0.1,0.5-0.2,0.6
		c-2.4,2.4-1.9,2.4-4.3,0c-0.4-0.4-0.3,0.1,0.5-11.3l-0.5-0.5l-0.6,0.6c-0.4,0.4-1.1,0.3-1.3-0.3l-1.3-3.4C4.8,22.3,6,21.2,4.3,29
		c-0.4,1.7-0.8,3.8-2,9.4c0.4,0.1,0.1,0,2.3,0.5c2.7-12.4,2.3-10.6,2.5-11.9c0-0.1,0.1-0.2,0.1-0.3c0-0.1,0.1-0.2,0.2-0.2
		c0.1-0.1,0.2-0.1,0.3-0.1c0,0,0.1,0,0.1,0c0,0,0.1,0,0.2,0c0,0,0.1,0,0.2,0c0.1,0,0.2,0.1,0.2,0.2c0.1,0.1,0.1,0.2,0.2,0.2
		c0,0.1,0.1,0.2,0.1,0.3l0.8,12.2h9.9l0.8-12.5c0-0.4,0.4-0.8,0.8-0.7c0.4,0,0.8,0.4,0.7,0.8C21.9,27.2,22.5,31.9,26.3,37z M18,61.7
		l1.3-20.9H9.6l1.3,20.9c0.4,0-0.7,0,2.8,0V45.5c0-1,1.6-1,1.6,0v16.2C18.6,61.7,17.6,61.7,18,61.7z M15.3,63.3c0,1-1.5,1-1.6,0
		c-3.8,0-2.6-0.3-5.8,1.4h13C17.9,63,19,63.3,15.3,63.3z M4.3,40.3l-2.2-0.4c0,1.2,0.7,2.3,1.8,2.8L4.3,40.3z M17.5,22.9l0.3-0.9
		c-0.3,0.1-0.6,0.2-0.8,0.3L17.5,22.9z M13.7,35.1l0.8,0.8l0.8-0.8l-0.7-10h-0.1L13.7,35.1z M13.5,23.1l0.5,0.5h1l0.5-0.5L15,22.7
		c-0.4,0-0.9,0-1.3,0L13.5,23.1z M11.9,22.4c-0.3-0.1-0.5-0.2-0.8-0.3l0.3,0.8C11.6,22.8,11.9,22.5,11.9,22.4z M50.7,37.4
		c5.7,8.3,7.3,17.3,4.9,28.2c-0.1,0.4-0.4,0.6-0.8,0.6H30.3c-0.4,0-0.7-0.3-0.8-0.6c-2.9-13-0.2-23.2,8.7-33
		c-0.1-1.2-0.3-2.3-0.7-3.4c-1.3,4-3.6,7.5-6.6,10.4c-0.5,0.7-1.3,1-2.1,1c-0.7,0-1.4-0.3-1.9-0.8c-0.1-0.1-1.3-1.2-1.3-1.3
		c-1.2-1.3-3-4.1-4.2-7.2l-1.9,30.6c0.3,0.2-0.7-0.4,2.5,1.4c1.4,0.7,0.9,2.8-0.7,2.8H7.5c-1.6,0-2.1-2.1-0.7-2.8
		c3.2-1.8,2.2-1.2,2.5-1.4L7.5,32.9c0,0.1-1.5,7-1.5,7s0-0.1-0.8,4c-0.3,1.4-2.9,0.2-3.9-1.4c-0.9-1.3-0.9-2.5-0.6-3.9
		c1.9-9.6,2-9.2,3.3-15.7c0.2-1.2,1.2-2.2,2.4-2.5c3-0.7,3.2-0.8,3.5-0.7c0.5,0.1,1.1,1.2,3.8,1.6c1.6,0.2,3.5-0.2,5-1.4
		c0.2-0.2,0.6-0.2,0.8-0.1l3.1,0.7c4,1,1.3,6.1,6.3,14c7.2-7.9,1.5-13,9.2-15.5c0.6-0.2,1.2,0.4,1,1.1c-0.1,0.3-0.4,0.5-0.7,0.5
		c-6.1,2.1-0.7,6.9-8.4,15.1c0.8,0.8,1.1,1,1.3,1.5c2.5-3,4.3-6.4,5.3-10.2c-1.5-4,2.5-7.3,6-4.4c2.8-2.3,6.4-0.8,6.3,2.8
		c0.1,0.3,0.1,0.7,0.1,1.1c0.2,2.4,0.4,4.1-0.1,6.2c-0.2,0.9-0.4,1.5-0.7,2.3c-0.8,2-1.9,3.8-3.6,5.5c-0.3,0.3-0.3,0.8,0,1.1
		c0.3,0.3,0.8,0.3,1.1,0c2.4-2.4,4-5.3,4.7-8.6c0.5-2.3,0.3-4.1,0.1-6.6c-0.3-2.9-1.1-5-4.3-6.2c-1-0.4-0.4-1.8,0.6-1.5
		c1.7,0.6,3,1.6,3.9,2.9c0.9,1.3,1.2,2.8,1.4,4.6C52.4,29.3,52.9,32.8,50.7,37.4z M46.2,12.3c-1.4-0.8-2.6-1.8-3.7-3.1
		c-1.1,1.3-2.3,2.3-3.7,3.1c0,0,0,0.1,0,0.1c0.3,2.6,1.9,4.5,3.7,4.5C44.3,16.9,45.9,14.9,46.2,12.3z M48.3,11.6
		c0.4,0.2,0.6,0.6,0.4,1c-0.2,0.4-0.6,0.6-1,0.4c-1.3,7.2-9,7.2-10.3,0c-1,0.5-1.6-1-0.7-1.4c1.1-0.5,2-1.1,2.9-1.8
		c2.2-1.8,2-2.6,2.8-2.6c0.8-0.1,0.7,0.8,2.9,2.6C46.2,10.5,47.2,11.1,48.3,11.6z M32.5,25.9C32,19,36.4,8.7,37,7.6
		c2.1-4,8.9-3.9,11,0c0.6,1.1,5,11.4,4.5,18.3c0,0.5,0.3,0.8,0.8,0.8c0.4,0,0.8-0.3,0.8-0.7c0.6-8-4.6-19.1-4.7-19.2
		c-2.7-5-11.1-5.1-13.8,0c-0.1,0.1-5.2,11.2-4.7,19.2C31,27.1,32.6,27,32.5,25.9z M8.3,10.2c0.5-1.5,2.2-4.1,3.2-3
		c0.7,0.8,1.6,1.5,2.5,1.8c1.2,0.2,2.1-0.8,1.9-1.9c-0.1-0.4,0.2-0.8,0.6-0.9c1.3-0.2,1.2,1.9,0.4,3c2.1-0.6,2.6-2.5,2-4.6
		c-3.5,1.4-5.9,0.7-7.1,0.7c-1.9,0-3.2,1.7-3.6,3.1C8.3,9,8.3,9.6,8.3,10.2z M18.7,10.3c-2.2,1.3-5.5,0.8-7.8-1.4
		c-2.8,3.1-0.9,9.5,3.5,9.5C18,18.4,20.3,14,18.7,10.3z M8.1,13.4C7.5,12.7,6.2,10.5,6.9,8c0,0,0.7-2.7,3.2-3.8
		c1.2-0.5,2.1-0.4,3.1-0.3c5.2,0.6,6.4-2.1,7-0.6c0.9,2.1,0.8,4.4-0.3,5.9c2.4,4.7-0.6,10.8-5.5,10.8C11.1,20,8.3,17.1,8.1,13.4z"/>
</g>
</svg>
