<?xml version="1.0" encoding="utf-8"?>
<!-- Generator: Adobe Illustrator 26.5.0, SVG Export Plug-In . SVG Version: 6.00 Build 0)  -->
<svg version="1.1" id="Laag_1" xmlns="http://www.w3.org/2000/svg" xmlns:xlink="http://www.w3.org/1999/xlink" x="0px" y="0px"
	 viewBox="0 0 74 62" style="enable-background:new 0 0 74 62;" xml:space="preserve">
<style type="text/css">
	.st0{clip-path:url(#SVGID_00000112594418862082888190000007548031813628944038_);fill:#342F60;}
	
		.st1{clip-path:url(#SVGID_00000112594418862082888190000007548031813628944038_);fill:none;stroke:#FFFFFF;stroke-width:0.105;stroke-miterlimit:10;}
</style>
<g>
	<defs>
		<rect id="SVGID_1_" x="3.7" y="1.4" width="67.2" height="59.8"/>
	</defs>
	<clipPath id="SVGID_00000088827338906595369610000004986128845672226220_">
		<use xlink:href="#SVGID_1_"  style="overflow:visible;"/>
	</clipPath>
	<path style="clip-path:url(#SVGID_00000088827338906595369610000004986128845672226220_);fill:#342F60;" d="M24.8,9.2
		c0.3,0,0.3-0.1,2-0.9c1-0.4,0.3-1.9-0.7-1.4l-1.7,0.8c-0.4,0.2-0.6,0.6-0.4,1C24.2,9,24.5,9.2,24.8,9.2 M25.3,14.2
		c-0.4-0.2-0.9,0.1-1,0.5c-0.2,0.4,0.1,0.9,0.5,1c0.2,0.1,1.8,0.7,2,0.7c0.9,0,1.1-1.2,0.3-1.5L25.3,14.2z M22.1,21l-0.8-1.7
		c-0.4-1-1.9-0.3-1.4,0.7l0.8,1.7C21,22.6,22.5,22,22.1,21 M13.3,19.6l-0.7,1.8c-0.4,1,1.1,1.5,1.5,0.6l0.7-1.8
		C15.2,19.2,13.7,18.6,13.3,19.6 M9,14.7l-1.7,0.8C6.5,15.8,6.8,17,7.6,17c0.3,0,0.3-0.1,2-0.9C10.6,15.7,9.9,14.3,9,14.7 M7,9
		l1.8,0.7c1,0.4,1.5-1.1,0.6-1.5L7.6,7.5C7.2,7.4,6.7,7.6,6.6,8C6.4,8.4,6.6,8.9,7,9 M13.7,5c0.6,0,1-0.6,0.7-1.1l-0.8-1.7
		c-0.2-0.4-0.7-0.6-1-0.4c-0.4,0.2-0.6,0.6-0.4,1C12.9,4.5,13,5,13.7,5 M20.1,4.8c0.7,0,0.8-0.6,1.4-2.3c0.4-1-1.1-1.5-1.5-0.6
		l-0.7,1.8C19.2,4.2,19.6,4.8,20.1,4.8 M15.3,16.5c2.5,0.9,5.3-0.3,6.3-2.8c1.5-4.1-2.7-7.9-6.6-6.1C13.8,8,12.9,9,12.5,10.2
		C11.5,12.7,12.8,15.5,15.3,16.5 M14.4,6c3.2-1.5,7.1,0,8.5,3.2c1.9,4.2-1.2,9.1-5.9,9.1c-0.8,0-1.5-0.1-2.3-0.4
		C9.4,15.9,9.2,8.4,14.4,6 M66.9,34.2v-0.8h-3.2v0.8c0,0.9,0.8,1.6,1.6,1.6C66.2,35.8,66.9,35.1,66.9,34.2 M63,59.5V36.3
		c-0.5-0.6-0.8-1.3-0.8-2.1v-1.6v-3.9c0-1.2-0.2-2.5-0.8-3.8c0,16.3,0,34.2,0,34.6H63z M59.8,59.2v-4.4v-19H45.5
		c0,20.5,0,18.2,0,20.7c0,1.2-1,2.2-2.2,2.2c-0.9,0-1.8-0.1-2.3,0.8h5.5c0.4-1.4,1.6-2.4,3.1-2.4h0.9c0.4,0,0.7-0.3,0.7-0.7v-1.7
		v-15c0-1,1.6-1,1.6,0v16.7c0,1.2-1,2.2-2.2,2.2h-0.9c-0.6,0-1.1,0.3-1.4,0.8C60.2,59.5,59.8,59.6,59.8,59.2 M15.9,59.5h7.4
		c0.3-0.1,0.3-0.3,0.3-0.6c0-0.5-0.4-1-1-1h-2.2c0,1-1.6,1-1.6,0h-2.2c-0.5,0-1,0.4-1,1v0.2C15.6,59.3,15.7,59.4,15.9,59.5
		 M16.4,56.4c0.2,0,2.2,0,2.4,0v-3.9c0-1,1.6-1,1.6,0v3.9c0.2,0,2.2,0,2.4,0v-7.7h-6.3V56.4z M13.2,39H6.1c-0.4,0-0.8,0.4-0.8,0.8
		c0,0.4,0.4,0.8,0.8,0.8h7.2V39z M16.8,39h-2v1.7c0.9,0.3,1.5,1.2,1.5,2.2v4.1c0,0.1,0,0.1,0,0.2h6.4c0-3.3-0.3-5.1,1.2-7.1
		l-1.2-1.2C20.8,39.9,18.6,39.9,16.8,39 M23.8,37.7l1.1,1.1l2.7-2.7c-0.4-0.4-0.7-0.9-0.8-1.4c0,0,0,0,0,0L23.8,37.7z M28.7,32.8
		c-0.2,0.3-0.4,0.6-0.4,0.9c0,0.2,0,0.1,0,0.2c0,0.2,0,0.1,0,0.2c0.1,0.5,0.4,0.9,0.9,1.1c0.3,0.2,0.7,0.2,1.1,0.1
		c0.5-0.2,1.3-0.4,1.8-0.6l-1.1-2.9C29.2,32.5,29.3,32.2,28.7,32.8 M42.3,57.1h0.9c0.4,0,0.7-0.3,0.7-0.7c0-2.8,0-24.2,0-28.7
		c-2.6,3.6-6.2,6.5-10.4,8.2c-0.3,0.1-2.2,0.8-2.8,1c-0.6,0.2-1.1,0.2-1.6,0l-3.6,3.6c-1.5,1.7-1.2,3.2-1.2,7.4c0,0.1,0,0.1,0,0.2v9
		c0.7,0.7,0.9,1.6,0.8,2.4h14.2C39.6,58.1,40.9,57.1,42.3,57.1 M32.6,31.2l1.1,3c7.2-3.3,9.8-8.9,10.5-9.6c0.1-0.1,0.2-0.1,0.3-0.2
		c0.1,0,0.2-0.1,0.3-0.1c0.1,0,0.2,0,0.2,0c0.1,0,0.2,0.1,0.3,0.1c0.1,0,0.1,0.1,0.2,0.2c0.1,0.1,0.1,0.2,0.1,0.3c0,0.1,0,0.1,0,0.2
		v9.2h14.3V22.4c-0.6-0.7-1.3-1.3-2-1.7c-0.4-0.2-0.5-0.7-0.2-1.1c0.2-0.4,0.7-0.5,1.1-0.2c1,0.6,1.8,1.4,2.6,2.3
		c0.3,0.4,2.2,2.5,2.5,6.1c0.1,0.6,0,0.7,0,4.1h3.2v-3.2c0-7.3-5.7-14.2-14.9-14.2c-0.9,4.8-5.4,7.5-9.1,5
		C41.2,24.6,37.4,28.9,32.6,31.2 M43.3,17.8c3.1,2.6,6.6,0,7.2-3.8c0.2-0.9,0-1.7,0-2.1c0-0.1,0-0.2,0.1-0.3c0-0.1,0.1-0.1,0.1-0.1
		c0.3-0.5,0.4-0.9,0.2-1.1c-0.3-0.4-1-0.2-1.2,1.3c-0.1,0.5-0.7,0.8-1.2,0.6c-2-1.1-2.4-3.3-1.8-3.9c0.3-0.3,1.2-1.3,1-2
		c-2.1-1.2-5.4-0.3-6.8,1.8C39.5,10.3,40,15.1,43.3,17.8 M49.6,6.4c-0.1,0.2-0.2,0.3-0.3,0.4c-0.1,1-0.7,1.8-1.3,2.4
		c0.1,0.4,0.2,0.7,0.4,0.9c0.7-1.5,2.2-1.9,3.2-1.2C51.4,7.7,50.6,6.6,49.6,6.4 M70.9,36.2c0,0.4-0.4,0.8-0.8,0.8s-0.8-0.4-0.8-0.8
		c0-0.7-0.3-1.3-0.8-1.8c-0.1,2-2,3.4-3.9,2.9v22.2h3.2c0.4,0,0.8,0.4,0.8,0.8c0,0.4-0.4,0.8-0.8,0.8c-46.5,0-44.6,0-44.6,0
		c-6.4,0-9.4,0-18.6,0c-1,0-1-1.6,0-1.6h9.5c-0.2-0.7,0-1.7,0.7-2.4v-9c-0.1-0.2,0-5.1,0-5.2c0-0.4-0.3-0.7-0.7-0.7h0c0,0,0,0,0,0
		H6.1c-1.3,0-2.4-1.1-2.4-2.4c0-1.3,1.1-2.4,2.4-2.4H14h3c0.1,0,0.1,0,0.2,0c0,0,0,0,0,0c0.1,0,0.2,0.1,0.2,0.1c0,0,0,0,0,0
		c1.3,0.7,2.9,0.7,4.2,0c0.2-0.1,0.3-0.2,0.4-0.2c0,0,0,0,0,0c0,0,5.8-5.8,5.8-5.8c0,0,0,0,0,0c0,0,0,0,0,0c0.1-0.1,0.2-0.2,0.3-0.2
		c0.2-0.2,0.5-0.3,0.8-0.4c6.1-1.7,10.7-6.5,12.5-12.4c-3.2-3.3-3.8-8.4-2-11.1c1.8-2.8,5.9-3.9,8.8-2.4c0,0,0,0,0.1,0
		c3.7-1,6.3,4.5,3.7,7.4c0,0.2,0,0.4,0,0.6h0.5c8.7,0,15.8,7.1,15.8,15.8v3.9C69.9,33.2,70.9,34.6,70.9,36.2 M16.5,33.1
		c0.2,0.8,0.7,1.6,1.4,2c1.3,0.9,2.8,0.5,3.5-1c0.3-0.7,0.4-1.6,0.2-2.4c-0.7-2.4-1.1-3.7-3.5-3C15.6,29.4,15.8,30.7,16.5,33.1
		 M15,33.6c-0.6-2.1-1.4-5.3,2.6-6.4c1.8-0.5,3.1-0.2,4.1,0.9c0.8,0.9,1.1,2.1,1.4,3.2c0.3,1.2,0.2,2.5-0.3,3.5
		C21.1,38.5,16.1,37.7,15,33.6"/>
	
		<path style="clip-path:url(#SVGID_00000088827338906595369610000004986128845672226220_);fill:none;stroke:#FFFFFF;stroke-width:0.105;stroke-miterlimit:10;" d="
		M24.8,9.2c0.3,0,0.3-0.1,2-0.9c1-0.4,0.3-1.9-0.7-1.4l-1.7,0.8c-0.4,0.2-0.6,0.6-0.4,1C24.2,9,24.5,9.2,24.8,9.2z M25.3,14.2
		c-0.4-0.2-0.9,0.1-1,0.5c-0.2,0.4,0.1,0.9,0.5,1c0.2,0.1,1.8,0.7,2,0.7c0.9,0,1.1-1.2,0.3-1.5L25.3,14.2z M22.1,21l-0.8-1.7
		c-0.4-1-1.9-0.3-1.4,0.7l0.8,1.7C21,22.6,22.5,22,22.1,21z M13.3,19.6l-0.7,1.8c-0.4,1,1.1,1.5,1.5,0.6l0.7-1.8
		C15.2,19.2,13.7,18.6,13.3,19.6z M9,14.7l-1.7,0.8C6.5,15.8,6.8,17,7.6,17c0.3,0,0.3-0.1,2-0.9C10.6,15.7,9.9,14.3,9,14.7z M7,9
		l1.8,0.7c1,0.4,1.5-1.1,0.6-1.5L7.6,7.5C7.2,7.4,6.7,7.6,6.6,8C6.4,8.4,6.6,8.9,7,9z M13.7,5c0.6,0,1-0.6,0.7-1.1l-0.8-1.7
		c-0.2-0.4-0.7-0.6-1-0.4c-0.4,0.2-0.6,0.6-0.4,1C12.9,4.5,13,5,13.7,5z M20.1,4.8c0.7,0,0.8-0.6,1.4-2.3c0.4-1-1.1-1.5-1.5-0.6
		l-0.7,1.8C19.2,4.2,19.6,4.8,20.1,4.8z M15.3,16.5c2.5,0.9,5.3-0.3,6.3-2.8c1.5-4.1-2.7-7.9-6.6-6.1C13.8,8,12.9,9,12.5,10.2
		C11.5,12.7,12.8,15.5,15.3,16.5z M14.4,6c3.2-1.5,7.1,0,8.5,3.2c1.9,4.2-1.2,9.1-5.9,9.1c-0.8,0-1.5-0.1-2.3-0.4
		C9.4,15.9,9.2,8.4,14.4,6z M66.9,34.2v-0.8h-3.2v0.8c0,0.9,0.8,1.6,1.6,1.6C66.2,35.8,66.9,35.1,66.9,34.2z M63,59.5V36.3
		c-0.5-0.6-0.8-1.3-0.8-2.1v-1.6v-3.9c0-1.2-0.2-2.5-0.8-3.8c0,16.3,0,34.2,0,34.6H63z M59.8,59.2v-4.4v-19H45.5
		c0,20.5,0,18.2,0,20.7c0,1.2-1,2.2-2.2,2.2c-0.9,0-1.8-0.1-2.3,0.8h5.5c0.4-1.4,1.6-2.4,3.1-2.4h0.9c0.4,0,0.7-0.3,0.7-0.7v-1.7
		v-15c0-1,1.6-1,1.6,0v16.7c0,1.2-1,2.2-2.2,2.2h-0.9c-0.6,0-1.1,0.3-1.4,0.8C60.2,59.5,59.8,59.6,59.8,59.2z M15.9,59.5h7.4
		c0.3-0.1,0.3-0.3,0.3-0.6c0-0.5-0.4-1-1-1h-2.2c0,1-1.6,1-1.6,0h-2.2c-0.5,0-1,0.4-1,1v0.2C15.6,59.3,15.7,59.4,15.9,59.5z
		 M16.4,56.4c0.2,0,2.2,0,2.4,0v-3.9c0-1,1.6-1,1.6,0v3.9c0.2,0,2.2,0,2.4,0v-7.7h-6.3V56.4z M13.2,39H6.1c-0.4,0-0.8,0.4-0.8,0.8
		c0,0.4,0.4,0.8,0.8,0.8h7.2V39z M16.8,39h-2v1.7c0.9,0.3,1.5,1.2,1.5,2.2v4.1c0,0.1,0,0.1,0,0.2h6.4c0-3.3-0.3-5.1,1.2-7.1
		l-1.2-1.2C20.8,39.9,18.6,39.9,16.8,39z M23.8,37.7l1.1,1.1l2.7-2.7c-0.4-0.4-0.7-0.9-0.8-1.4c0,0,0,0,0,0L23.8,37.7z M28.7,32.8
		c-0.2,0.3-0.4,0.6-0.4,0.9c0,0.2,0,0.1,0,0.2c0,0.2,0,0.1,0,0.2c0.1,0.5,0.4,0.9,0.9,1.1c0.3,0.2,0.7,0.2,1.1,0.1
		c0.5-0.2,1.3-0.4,1.8-0.6l-1.1-2.9C29.2,32.5,29.3,32.2,28.7,32.8z M42.3,57.1h0.9c0.4,0,0.7-0.3,0.7-0.7c0-2.8,0-24.2,0-28.7
		c-2.6,3.6-6.2,6.5-10.4,8.2c-0.3,0.1-2.2,0.8-2.8,1c-0.6,0.2-1.1,0.2-1.6,0l-3.6,3.6c-1.5,1.7-1.2,3.2-1.2,7.4c0,0.1,0,0.1,0,0.2v9
		c0.7,0.7,0.9,1.6,0.8,2.4h14.2C39.6,58.1,40.9,57.1,42.3,57.1z M32.6,31.2l1.1,3c7.2-3.3,9.8-8.9,10.5-9.6c0.1-0.1,0.2-0.1,0.3-0.2
		c0.1,0,0.2-0.1,0.3-0.1c0.1,0,0.2,0,0.2,0c0.1,0,0.2,0.1,0.3,0.1c0.1,0,0.1,0.1,0.2,0.2c0.1,0.1,0.1,0.2,0.1,0.3c0,0.1,0,0.1,0,0.2
		v9.2h14.3V22.4c-0.6-0.7-1.3-1.3-2-1.7c-0.4-0.2-0.5-0.7-0.2-1.1c0.2-0.4,0.7-0.5,1.1-0.2c1,0.6,1.8,1.4,2.6,2.3
		c0.3,0.4,2.2,2.5,2.5,6.1c0.1,0.6,0,0.7,0,4.1h3.2v-3.2c0-7.3-5.7-14.2-14.9-14.2c-0.9,4.8-5.4,7.5-9.1,5
		C41.2,24.6,37.4,28.9,32.6,31.2z M43.3,17.8c3.1,2.6,6.6,0,7.2-3.8c0.2-0.9,0-1.7,0-2.1c0-0.1,0-0.2,0.1-0.3c0-0.1,0.1-0.1,0.1-0.1
		c0.3-0.5,0.4-0.9,0.2-1.1c-0.3-0.4-1-0.2-1.2,1.3c-0.1,0.5-0.7,0.8-1.2,0.6c-2-1.1-2.4-3.3-1.8-3.9c0.3-0.3,1.2-1.3,1-2
		c-2.1-1.2-5.4-0.3-6.8,1.8C39.5,10.3,40,15.1,43.3,17.8z M49.6,6.4c-0.1,0.2-0.2,0.3-0.3,0.4c-0.1,1-0.7,1.8-1.3,2.4
		c0.1,0.4,0.2,0.7,0.4,0.9c0.7-1.5,2.2-1.9,3.2-1.2C51.4,7.7,50.6,6.6,49.6,6.4z M70.9,36.2c0,0.4-0.4,0.8-0.8,0.8s-0.8-0.4-0.8-0.8
		c0-0.7-0.3-1.3-0.8-1.8c-0.1,2-2,3.4-3.9,2.9v22.2h3.2c0.4,0,0.8,0.4,0.8,0.8c0,0.4-0.4,0.8-0.8,0.8c-46.5,0-44.6,0-44.6,0
		c-6.4,0-9.4,0-18.6,0c-1,0-1-1.6,0-1.6h9.5c-0.2-0.7,0-1.7,0.7-2.4v-9c-0.1-0.2,0-5.1,0-5.2c0-0.4-0.3-0.7-0.7-0.7h0c0,0,0,0,0,0
		H6.1c-1.3,0-2.4-1.1-2.4-2.4c0-1.3,1.1-2.4,2.4-2.4H14h3c0.1,0,0.1,0,0.2,0c0,0,0,0,0,0c0.1,0,0.2,0.1,0.2,0.1c0,0,0,0,0,0
		c1.3,0.7,2.9,0.7,4.2,0c0.2-0.1,0.3-0.2,0.4-0.2c0,0,0,0,0,0c0,0,5.8-5.8,5.8-5.8c0,0,0,0,0,0c0,0,0,0,0,0c0.1-0.1,0.2-0.2,0.3-0.2
		c0.2-0.2,0.5-0.3,0.8-0.4c6.1-1.7,10.7-6.5,12.5-12.4c-3.2-3.3-3.8-8.4-2-11.1c1.8-2.8,5.9-3.9,8.8-2.4c0,0,0,0,0.1,0
		c3.7-1,6.3,4.5,3.7,7.4c0,0.2,0,0.4,0,0.6h0.5c8.7,0,15.8,7.1,15.8,15.8v3.9C69.9,33.2,70.9,34.6,70.9,36.2z M16.5,33.1
		c0.2,0.8,0.7,1.6,1.4,2c1.3,0.9,2.8,0.5,3.5-1c0.3-0.7,0.4-1.6,0.2-2.4c-0.7-2.4-1.1-3.7-3.5-3C15.6,29.4,15.8,30.7,16.5,33.1z
		 M15,33.6c-0.6-2.1-1.4-5.3,2.6-6.4c1.8-0.5,3.1-0.2,4.1,0.9c0.8,0.9,1.1,2.1,1.4,3.2c0.3,1.2,0.2,2.5-0.3,3.5
		C21.1,38.5,16.1,37.7,15,33.6z"/>
</g>
</svg>
