<?xml version="1.0" encoding="utf-8"?>
<!-- Generator: Adobe Illustrator 26.5.0, SVG Export Plug-In . SVG Version: 6.00 Build 0)  -->
<svg version="1.1" xmlns="http://www.w3.org/2000/svg" xmlns:xlink="http://www.w3.org/1999/xlink" x="0px" y="0px"
	 viewBox="0 0 114 334" style="enable-background:new 0 0 114 334;" xml:space="preserve">
<style type="text/css">
	.st0{fill:#FFFFFF;}
	.st1{fill:#B0D2F0;}
	.st2{fill:none;stroke:#29235C;stroke-width:2.5;stroke-linecap:round;stroke-miterlimit:10;}
	.st3{fill:none;stroke:#29235C;stroke-width:2.5;stroke-linecap:round;stroke-linejoin:round;stroke-miterlimit:10;}
</style>
<g id="Laag_2">
	<path class="st0" d="M39,319l-1.7-7l-4.9-69.8l-17.5-64.3l-0.7-63.4c0,0-1.5-14.5,15.7-24.5C21,85,3.9,75,4.5,65.5
		C11,57,16,52,19,31.5S36.8,0.1,56.4,2.1s28.2,0.3,35.9,19.6s4.5,31.6,17.6,44C107,74,96,84.1,86,91.1c10,8.9,14.3,11.6,14.2,30.8
		s-0.6,62.7-0.6,62.7l-16.7,57.7L76.2,319H39z"/>
</g>
<g id="Laag_1">
	<g>
		<path class="st1" d="M83,323.8c1.6,4.6-1.1,8.3-5.9,8.3H36.9c-4.8,0-7.4-3.7-5.8-8.2l0.7-2c1.6-4.5,6.9-8.2,11.7-8.2h27.2
			c4.8,0,10,3.7,11.6,8.3L83,323.8z"/>
		<path class="st2" d="M83,323.8c1.6,4.6-1.1,8.3-5.9,8.3H36.9c-4.8,0-7.4-3.7-5.8-8.2l0.7-2c1.6-4.5,6.9-8.2,11.7-8.2h27.2
			c4.8,0,10,3.7,11.6,8.3L83,323.8z"/>
		<path class="st3" d="M32.3,242.2l5,71.3 M80.1,47.1c0,16.3-10.9,29.6-24.3,29.6c-13.4,0-24.3-13.2-24.3-29.6 M24.5,50.1
			c0,0,19.7-7.7,31.3-22.1 M49.1,17.7c0,0,17.5,21.7,37.8,32.4 M56.4,2.5C25-1.3,20.7,22.8,16.9,40.9C13.2,59,4.5,65.5,4.5,65.5
			S4.9,75.4,21,84.8 M36.2,87c0,0-22.1,7.1-22.1,27.5l0.8,66 M82,242.4l-5,71.3 M58,2.6C89.4-1.1,93.6,23,97.4,41.1
			c3.8,18.1,12.5,24.6,12.5,24.6s-0.4,9.9-16.6,19.3 M78.2,87.2c0,0,22.1,7.1,22.1,27.5l-0.8,66 M57.3,245.9v77.6"/>
		<path class="st1" d="M77,87c0,10.8-9.1,19.6-20.4,19.6c-11.3,0-20.4-8.8-20.4-19.6c-15.9,15.1-9.9,28-5.4,43.9
			c4.5,15.9-1.1,25-1.1,25c-5.5,7.7-10.3,15.9-14.4,24.6c-6.9,15-11.5,31.2-13.3,48.4c15.7,10.4,34.5,16.4,54.7,16.4l0.8,0.2
			c20.2,0,39-6,54.7-16.4c-1.7-17.1-6.3-33.4-13.3-48.4c-4-8.7-8.8-16.9-14.4-24.6c0,0-5.6-9.1-1.1-25c4.5-15.9,10.5-28.8-5.4-43.9
			L77,87z"/>
		<path class="st3" d="M77,87c0,10.8-9.1,19.6-20.4,19.6c-11.3,0-20.4-8.8-20.4-19.6c-15.9,15.1-9.9,28-5.4,43.9
			c4.5,15.9-1.1,25-1.1,25c-5.5,7.7-10.3,15.9-14.4,24.6c-6.9,15-11.5,31.2-13.3,48.4c15.7,10.4,34.5,16.4,54.7,16.4l0.8,0.2
			c20.2,0,39-6,54.7-16.4c-1.7-17.1-6.3-33.4-13.3-48.4c-4-8.7-8.8-16.9-14.4-24.6c0,0-5.6-9.1-1.1-25c4.5-15.9,10.5-28.8-5.4-43.9
			L77,87z"/>
	</g>
</g>
</svg>
