<?xml version="1.0" encoding="utf-8"?>
<!-- Generator: Adobe Illustrator 26.5.0, SVG Export Plug-In . SVG Version: 6.00 Build 0)  -->
<svg version="1.1" id="Laag_1" xmlns="http://www.w3.org/2000/svg" xmlns:xlink="http://www.w3.org/1999/xlink" x="0px" y="0px"
	 viewBox="0 0 130 108" style="enable-background:new 0 0 130 108;" xml:space="preserve">
<style type="text/css">
	
		.st0{clip-path:url(#SVGID_00000045620195711249622670000002395019900064077710_);fill:none;stroke:#342F60;stroke-width:1.6;stroke-linecap:round;stroke-linejoin:round;stroke-miterlimit:10;}
</style>
<g>
	<defs>
		<rect id="SVGID_1_" x="0.6" y="0.4" width="129.1" height="107.3"/>
	</defs>
	<clipPath id="SVGID_00000102508600902771550630000010870362447667301287_">
		<use xlink:href="#SVGID_1_"  style="overflow:visible;"/>
	</clipPath>
	
		<path style="clip-path:url(#SVGID_00000102508600902771550630000010870362447667301287_);fill:none;stroke:#342F60;stroke-width:1.6;stroke-linecap:round;stroke-linejoin:round;stroke-miterlimit:10;" d="
		M111.1,36.5c0-14.8-12-26.9-26.9-26.9c-2.7,0-5.3,0.4-7.7,1.2C72.4,5,65.6,1.2,58,1.2c-5.1,0-9.7,1.7-13.5,4.5
		c-4-2-8.5-3.1-13.2-3.1C14.8,2.6,1.4,15.9,1.4,32.4s13.4,29.8,29.8,29.8c2.6,0,5.1-0.4,7.5-1c4.7,7,12.7,11.6,21.7,11.6
		c8.2,0,15.6-3.8,20.4-9.7c1.1,0.1,2.3,0.2,3.4,0.2C99.1,63.4,111.1,51.4,111.1,36.5z"/>
	
		<circle style="clip-path:url(#SVGID_00000102508600902771550630000010870362447667301287_);fill:none;stroke:#342F60;stroke-width:1.6;stroke-linecap:round;stroke-linejoin:round;stroke-miterlimit:10;" cx="102.4" cy="79.1" r="9.8"/>
	
		<path style="clip-path:url(#SVGID_00000102508600902771550630000010870362447667301287_);fill:none;stroke:#342F60;stroke-width:1.6;stroke-linecap:round;stroke-linejoin:round;stroke-miterlimit:10;" d="
		M122,106.9c3.8,0,6.9-3.1,6.9-6.9c0-3.8-3.1-6.9-6.9-6.9c-3.8,0-6.9,3.1-6.9,6.9C115.2,103.8,118.2,106.9,122,106.9z"/>
</g>
</svg>
