<?xml version="1.0" encoding="utf-8"?>
<!-- Generator: Adobe Illustrator 25.4.8, SVG Export Plug-In . SVG Version: 6.00 Build 0)  -->
<svg version="1.1" id="Laag_1" xmlns="http://www.w3.org/2000/svg" xmlns:xlink="http://www.w3.org/1999/xlink" x="0px" y="0px"
	 viewBox="0 0 46 133" style="enable-background:new 0 0 46 133;" xml:space="preserve">
<style type="text/css">
	.st0{fill:#FFFFFF;}
	.st1{clip-path:url(#SVGID_00000069380395057821414570000007403255630407883408_);fill:#B0D2F0;}
	.st2{clip-path:url(#SVGID_00000069380395057821414570000007403255630407883408_);fill:#FFFFFF;}
	.st3{fill:#29235C;}
	.st4{fill:none;stroke:#29235C;stroke-width:1.578;stroke-linecap:round;stroke-miterlimit:10;}
	
		.st5{clip-path:url(#SVGID_00000024698399255553848220000002549089341583625905_);fill:none;stroke:#29235C;stroke-width:1.578;stroke-linecap:round;stroke-miterlimit:10;}
	
		.st6{clip-path:url(#SVGID_00000024698399255553848220000002549089341583625905_);fill:none;stroke:#29235C;stroke-width:1.578;stroke-linecap:round;stroke-linejoin:round;stroke-miterlimit:10;}
	
		.st7{clip-path:url(#SVGID_00000165940637802139568430000001226749713711723141_);fill:none;stroke:#29235C;stroke-width:1.578;stroke-linecap:round;stroke-miterlimit:10;}
	
		.st8{clip-path:url(#SVGID_00000165940637802139568430000001226749713711723141_);fill:none;stroke:#29235C;stroke-width:1.578;stroke-linecap:round;stroke-linejoin:round;stroke-miterlimit:10;}
	.st9{clip-path:url(#SVGID_00000165940637802139568430000001226749713711723141_);fill:#B0D2F0;}
</style>
<rect x="1.4" y="72.1" class="st0" width="10.5" height="13.4"/>
<rect x="34.4" y="72.1" class="st0" width="10.7" height="13.4"/>
<rect x="12.6" y="84.3" class="st0" width="20.7" height="35.4"/>
<g>
	<defs>
		<rect id="SVGID_1_" x="-0.1" y="0.5" width="46.5" height="132.3"/>
	</defs>
	<clipPath id="SVGID_00000167369126315769650360000003529626317777434516_">
		<use xlink:href="#SVGID_1_"  style="overflow:visible;"/>
	</clipPath>
	<path style="clip-path:url(#SVGID_00000167369126315769650360000003529626317777434516_);fill:#B0D2F0;" d="M0.8,65.4l10.7,0.2
		v17.7h22V65.4h11.6V52c0,0-2-7.5-5.2-8.2c-3.2-0.7-4.8-1.1-4.8-1.1S30.1,47,24,47S16,45.7,16,45.7l-5-3.2c0,0-5.9,0.9-7.5,3.4
		c-1.6,2.5-2.5,3.6-2.7,7C0.6,56.3,0.8,65.4,0.8,65.4"/>
	<path style="clip-path:url(#SVGID_00000167369126315769650360000003529626317777434516_);fill:#FFFFFF;" d="M10.6,26.6
		c0,0,2.4,7.5,3.9,9.1s9.5,5.1,12.5,3.6s3.4-2.1,3.4-2.1l4.7-8.5L34,24.2c0,0-12.2,0.9-12.5,0.9C21.2,25.1,10.6,26.6,10.6,26.6"/>
</g>
<path class="st3" d="M12.1,120.3V56.2V120.3z"/>
<line class="st4" x1="12.1" y1="56.2" x2="12.1" y2="120.3"/>
<g>
	<defs>
		<rect id="SVGID_00000075136107081678627960000001941997087572432786_" x="-0.1" y="0.5" width="46.5" height="132.3"/>
	</defs>
	<clipPath id="SVGID_00000162315561212871665130000005238612049074594971_">
		<use xlink:href="#SVGID_00000075136107081678627960000001941997087572432786_"  style="overflow:visible;"/>
	</clipPath>
	
		<path style="clip-path:url(#SVGID_00000162315561212871665130000005238612049074594971_);fill:none;stroke:#29235C;stroke-width:1.578;stroke-linecap:round;stroke-miterlimit:10;" d="
		M35.5,24c0,8.8-5.6,15.9-12.4,15.9S10.7,32.8,10.7,24s5.6-11.1,12.4-11.1S35.5,15.2,35.5,24z"/>
	
		<path style="clip-path:url(#SVGID_00000162315561212871665130000005238612049074594971_);fill:none;stroke:#29235C;stroke-width:1.578;stroke-linecap:round;stroke-linejoin:round;stroke-miterlimit:10;" d="
		M10.7,24.6C7.5,9.8,12.1,1.3,12.1,1.3"/>
	
		<path style="clip-path:url(#SVGID_00000162315561212871665130000005238612049074594971_);fill:none;stroke:#29235C;stroke-width:1.578;stroke-linecap:round;stroke-miterlimit:10;" d="
		M11.1,42.4c-5.8,0-10.4,4.7-10.4,10.4v33.1c0,0-0.1,9.6,9.5,9.6 M35.1,42.1c-3.1,3.1-7.3,5-12,5s-8.9-1.9-12-5 M34.1,1.3
		c0,0,4.6,8.5,1.4,23.3"/>
</g>
<path class="st3" d="M34.1,120.3V56.2V120.3z"/>
<line class="st4" x1="34.1" y1="56.2" x2="34.1" y2="120.3"/>
<g>
	<defs>
		<rect id="SVGID_00000124857752330785615590000003468498380886812314_" x="-0.1" y="0.5" width="46.5" height="132.3"/>
	</defs>
	<clipPath id="SVGID_00000093167780810843007550000007957693069109705886_">
		<use xlink:href="#SVGID_00000124857752330785615590000003468498380886812314_"  style="overflow:visible;"/>
	</clipPath>
	
		<path style="clip-path:url(#SVGID_00000093167780810843007550000007957693069109705886_);fill:none;stroke:#29235C;stroke-width:1.578;stroke-linecap:round;stroke-miterlimit:10;" d="
		M13,83.3h21.1 M34.6,65.3h10.5 M0.6,65.3h11.2 M35.2,42.4c5.8,0,10.4,4.7,10.4,10.4v33.1c0,0,0.1,9.6-9.5,9.6"/>
	
		<path style="clip-path:url(#SVGID_00000093167780810843007550000007957693069109705886_);fill:none;stroke:#29235C;stroke-width:1.578;stroke-linecap:round;stroke-linejoin:round;stroke-miterlimit:10;" d="
		M12.1,1.2c2.8,0,2.8,2.2,5.5,2.2s2.8-2.2,5.5-2.2c2.8,0,2.8,2.2,5.5,2.2c2.8,0,2.8-2.2,5.5-2.2"/>
	<path style="clip-path:url(#SVGID_00000093167780810843007550000007957693069109705886_);fill:#B0D2F0;" d="M38.7,126.6
		c0,3-2.4,5.4-5.4,5.4h-20c-3,0-5.4-2.4-5.4-5.4V126c0-3,2.4-5.4,5.4-5.4h20c3,0,5.4,2.4,5.4,5.4V126.6z"/>
	
		<path style="clip-path:url(#SVGID_00000093167780810843007550000007957693069109705886_);fill:none;stroke:#29235C;stroke-width:1.578;stroke-linecap:round;stroke-miterlimit:10;" d="
		M38.7,126.6c0,3-2.4,5.4-5.4,5.4h-20c-3,0-5.4-2.4-5.4-5.4V126c0-3,2.4-5.4,5.4-5.4h20c3,0,5.4,2.4,5.4,5.4V126.6z"/>
</g>
<line class="st4" x1="23.1" y1="95.9" x2="23.1" y2="125.8"/>
</svg>
