<?xml version="1.0" encoding="utf-8"?>
<!-- Generator: Adobe Illustrator 26.5.0, SVG Export Plug-In . SVG Version: 6.00 Build 0)  -->
<svg version="1.1" id="Laag_1" xmlns="http://www.w3.org/2000/svg" xmlns:xlink="http://www.w3.org/1999/xlink" x="0px" y="0px"
	 viewBox="0 0 203 106" style="enable-background:new 0 0 203 106;" xml:space="preserve">
<style type="text/css">
	.st0{fill:none;stroke:#342F60;stroke-width:1.578;stroke-miterlimit:10;}
	.st1{fill:none;stroke:#342F60;stroke-width:1.578;stroke-linecap:round;stroke-linejoin:round;stroke-miterlimit:10;}
</style>
<g>
	<path class="st0" d="M15.7,35.4V24.6C15.7,12,26.3,1.7,39.3,1.7h90.3"/>
	<path class="st0" d="M187.2,35.4V24.6c0-12.7-10.6-22.9-23.6-22.9h-34.1"/>
	<path class="st0" d="M170,89l6.2,13.3c1.6,2.7,4.9,3.5,7.4,1.9c2.5-1.7,3.3-5.3,1.7-8l-4.7-10"/>
	<path class="st1" d="M132.2,89.1L31.7,89c-4.8,0-8.9-2.4-11.4-6l-8.4-19.7l0,0C6,61.6,1.7,56.3,1.7,50c0-7.6,6.3-13.8,14.1-13.8
		c4.9,0,9.1,2.4,11.7,6.1l7.5,14.3l0.4,0.3c9-4.2,21.8-6.8,36-6.8h60.4c14.2,0,27,2.6,36,6.8l0.4-0.3l7.5-14.3
		c2.5-3.7,6.8-6.1,11.7-6.1c7.8,0,14.1,6.2,14.1,13.8c0,6.3-4.3,11.7-10.2,13.3l0,0L182.6,83c-2.5,3.6-6.7,6-11.4,6l-39.6,0.1"/>
	<path class="st0" d="M32.9,89l-6.2,13.3c-1.6,2.7-4.9,3.5-7.4,1.9c-2.5-1.7-3.3-5.3-1.7-8l4.7-10"/>
</g>
<path class="st1" d="M72.3,106.2"/>
</svg>
