<?xml version="1.0" encoding="utf-8"?>
<!-- Generator: Adobe Illustrator 26.5.0, SVG Export Plug-In . SVG Version: 6.00 Build 0)  -->
<svg version="1.1" id="Laag_1" xmlns="http://www.w3.org/2000/svg" xmlns:xlink="http://www.w3.org/1999/xlink" x="0px" y="0px"
	 viewBox="0 0 50 64" style="enable-background:new 0 0 50 64;" xml:space="preserve">
<style type="text/css">
	.st0{clip-path:url(#SVGID_00000124869775686271301380000008954156098841177767_);fill:#FFFFFF;}
	
		.st1{clip-path:url(#SVGID_00000124869775686271301380000008954156098841177767_);fill:none;stroke:#342F60;stroke-width:1.578;stroke-linecap:round;stroke-miterlimit:10;}
	
		.st2{clip-path:url(#SVGID_00000124869775686271301380000008954156098841177767_);fill:none;stroke:#342F60;stroke-width:1.578;stroke-miterlimit:10;}
</style>
<g>
	<defs>
		<rect id="SVGID_1_" x="0.5" y="0.6" width="49.5" height="62.8"/>
	</defs>
	<clipPath id="SVGID_00000134956617163806688410000009158680192137460885_">
		<use xlink:href="#SVGID_1_"  style="overflow:visible;"/>
	</clipPath>
	<path style="clip-path:url(#SVGID_00000134956617163806688410000009158680192137460885_);fill:#FFFFFF;" d="M2.8,62.7
		c0-4.6,3.7-8.3,8.3-8.3c4.6,0,8.3,3.7,8.3,8.3"/>
	
		<path style="clip-path:url(#SVGID_00000134956617163806688410000009158680192137460885_);fill:none;stroke:#342F60;stroke-width:1.578;stroke-linecap:round;stroke-miterlimit:10;" d="
		M2.8,62.7c0-4.6,3.7-8.3,8.3-8.3c4.6,0,8.3,3.7,8.3,8.3"/>
	
		<path style="clip-path:url(#SVGID_00000134956617163806688410000009158680192137460885_);fill:none;stroke:#342F60;stroke-width:1.578;stroke-miterlimit:10;" d="
		M35.6,9.2l3.1,6.9l9.9-9.9l-6.9-3.3l-0.9-0.6l-5.9,5.7L35.6,9.2z M8.9,54.7L3.7,34.4L35.6,2.8"/>
	<path style="clip-path:url(#SVGID_00000134956617163806688410000009158680192137460885_);fill:#FFFFFF;" d="M6.2,34.4
		c0,1.4-1.1,2.5-2.5,2.5s-2.5-1.1-2.5-2.5c0-1.4,1.1-2.5,2.5-2.5S6.2,33.1,6.2,34.4"/>
	
		<path style="clip-path:url(#SVGID_00000134956617163806688410000009158680192137460885_);fill:none;stroke:#342F60;stroke-width:1.578;stroke-miterlimit:10;" d="
		M6.2,34.4c0,1.4-1.1,2.5-2.5,2.5s-2.5-1.1-2.5-2.5c0-1.4,1.1-2.5,2.5-2.5S6.2,33.1,6.2,34.4z"/>
	<path style="clip-path:url(#SVGID_00000134956617163806688410000009158680192137460885_);fill:#FFFFFF;" d="M36.8,2.9
		c0,0.8-0.6,1.4-1.4,1.4c-0.8,0-1.4-0.6-1.4-1.4c0-0.8,0.6-1.4,1.4-1.4C36.2,1.4,36.8,2.1,36.8,2.9"/>
	
		<circle style="clip-path:url(#SVGID_00000134956617163806688410000009158680192137460885_);fill:none;stroke:#342F60;stroke-width:1.578;stroke-linecap:round;stroke-miterlimit:10;" cx="35.4" cy="2.9" r="1.4"/>
</g>
</svg>
