<?xml version="1.0" encoding="utf-8"?>
<!-- Generator: Adobe Illustrator 25.4.8, SVG Export Plug-In . SVG Version: 6.00 Build 0)  -->
<svg version="1.1" id="Laag_1" xmlns="http://www.w3.org/2000/svg" xmlns:xlink="http://www.w3.org/1999/xlink" x="0px" y="0px"
	 viewBox="0 0 92 185" style="enable-background:new 0 0 92 185;" xml:space="preserve">
<style type="text/css">
	
		.st0{clip-path:url(#SVGID_00000000212423100259261780000006859291634439178922_);fill:none;stroke:#29235C;stroke-width:1.578;stroke-linecap:round;stroke-linejoin:round;stroke-miterlimit:10;}
</style>
<g>
	<defs>
		<rect id="SVGID_1_" x="0.5" y="0.6" width="91.3" height="184"/>
	</defs>
	<clipPath id="SVGID_00000100379903686024786150000017527284760100254116_">
		<use xlink:href="#SVGID_1_"  style="overflow:visible;"/>
	</clipPath>
	
		<path style="clip-path:url(#SVGID_00000100379903686024786150000017527284760100254116_);fill:none;stroke:#29235C;stroke-width:1.578;stroke-linecap:round;stroke-linejoin:round;stroke-miterlimit:10;" d="
		M67.6,11.6C61.7,5.3,53.3,1.4,43.9,1.4c-18,0-32.5,14.6-32.5,32.5v140.3"/>
	
		<path style="clip-path:url(#SVGID_00000100379903686024786150000017527284760100254116_);fill:none;stroke:#29235C;stroke-width:1.578;stroke-linecap:round;stroke-linejoin:round;stroke-miterlimit:10;" d="
		M91,35.8c0-12.9-10.5-23.4-23.4-23.4c-12.9,0-23.4,10.5-23.4,23.4H91z"/>
	
		<path style="clip-path:url(#SVGID_00000100379903686024786150000017527284760100254116_);fill:none;stroke:#29235C;stroke-width:1.578;stroke-linecap:round;stroke-linejoin:round;stroke-miterlimit:10;" d="
		M58.5,36.3c0,5.4,4.4,9.8,9.8,9.8c5.4,0,9.8-4.4,9.8-9.8"/>
	
		<path style="clip-path:url(#SVGID_00000100379903686024786150000017527284760100254116_);fill:none;stroke:#29235C;stroke-width:1.578;stroke-linecap:round;stroke-linejoin:round;stroke-miterlimit:10;" d="
		M1.3,183.9c0-5.4,4.4-9.8,9.8-9.8s9.8,4.4,9.8,9.8"/>
</g>
</svg>
