<?xml version="1.0" encoding="utf-8"?>
<!-- Generator: Adobe Illustrator 25.4.8, SVG Export Plug-In . SVG Version: 6.00 Build 0)  -->
<svg version="1.1" id="Laag_1" xmlns="http://www.w3.org/2000/svg" xmlns:xlink="http://www.w3.org/1999/xlink" x="0px" y="0px"
	 viewBox="0 0 68 208" style="enable-background:new 0 0 68 208;" xml:space="preserve">
<style type="text/css">
	.st0{fill:#B0D2F0;}
	
		.st1{clip-path:url(#SVGID_00000129895605057763492830000015305560182397374134_);fill:none;stroke:#29235C;stroke-width:1.6;stroke-linecap:round;stroke-miterlimit:10;}
	.st2{fill:none;stroke:#29235C;stroke-width:1.6;stroke-linecap:round;stroke-linejoin:round;stroke-miterlimit:10;}
	.st3{clip-path:url(#SVGID_00000121980065726240438050000001259170346880342688_);fill:#B0D2F0;}
	
		.st4{clip-path:url(#SVGID_00000121980065726240438050000001259170346880342688_);fill:none;stroke:#B0D2F0;stroke-width:1.6;stroke-linecap:round;stroke-linejoin:round;stroke-miterlimit:10;}
	
		.st5{clip-path:url(#SVGID_00000121980065726240438050000001259170346880342688_);fill:none;stroke:#29235C;stroke-width:1.6;stroke-linecap:round;stroke-linejoin:round;stroke-miterlimit:10;}
	
		.st6{clip-path:url(#SVGID_00000121980065726240438050000001259170346880342688_);fill:none;stroke:#B0D2F0;stroke-width:1.6;stroke-miterlimit:10;}
	
		.st7{clip-path:url(#SVGID_00000121980065726240438050000001259170346880342688_);fill:none;stroke:#29235C;stroke-width:1.6;stroke-linecap:round;stroke-miterlimit:10;}
	.st8{fill:none;stroke:#29235C;stroke-width:1.6;stroke-linecap:round;stroke-miterlimit:10;}
</style>
<rect x="54.3" y="136.4" class="st0" width="13" height="43.9"/>
<g>
	<defs>
		<rect id="SVGID_1_" x="0.2" y="-0.4" width="67.9" height="208.1"/>
	</defs>
	<clipPath id="SVGID_00000060023121085156352610000011872422688177130391_">
		<use xlink:href="#SVGID_1_"  style="overflow:visible;"/>
	</clipPath>
	
		<rect x="54.3" y="136.4" style="clip-path:url(#SVGID_00000060023121085156352610000011872422688177130391_);fill:none;stroke:#29235C;stroke-width:1.6;stroke-linecap:round;stroke-miterlimit:10;" width="13" height="43.9"/>
</g>
<line class="st2" x1="60.8" y1="122.5" x2="60.8" y2="136.3"/>
<g>
	<defs>
		<rect id="SVGID_00000132785796357432490680000014433268902097790363_" x="0.2" y="-0.4" width="67.9" height="208.1"/>
	</defs>
	<clipPath id="SVGID_00000131363630804687094540000017411594593146379176_">
		<use xlink:href="#SVGID_00000132785796357432490680000014433268902097790363_"  style="overflow:visible;"/>
	</clipPath>
	<path style="clip-path:url(#SVGID_00000131363630804687094540000017411594593146379176_);fill:#B0D2F0;" d="M66.5,117.2V75.1
		c0-11-8.9-19.9-19.9-19.9l0,0c-7.1,7.1-18.7,7.1-25.8,0l0,0C9.9,55.3,1,64.2,1,75.1v42.1H66.5z"/>
	
		<path style="clip-path:url(#SVGID_00000131363630804687094540000017411594593146379176_);fill:none;stroke:#B0D2F0;stroke-width:1.6;stroke-linecap:round;stroke-linejoin:round;stroke-miterlimit:10;" d="
		M66.5,117.2V75.1c0-11-8.9-19.9-19.9-19.9l0,0c-7.1,7.1-18.7,7.1-25.8,0l0,0C9.9,55.3,1,64.2,1,75.1v42.1H66.5z"/>
	
		<path style="clip-path:url(#SVGID_00000131363630804687094540000017411594593146379176_);fill:none;stroke:#29235C;stroke-width:1.6;stroke-linecap:round;stroke-linejoin:round;stroke-miterlimit:10;" d="
		M66.5,117.2V75.1c0-11-8.9-19.9-19.9-19.9l0,0c-7.1,7.1-18.7,7.1-25.8,0l0,0C9.9,55.3,1,64.2,1,75.1v42.1H66.5z"/>
	<path style="clip-path:url(#SVGID_00000131363630804687094540000017411594593146379176_);fill:#B0D2F0;" d="M60.2,201.5
		c0,3-2.4,5.4-5.4,5.4H13.1c-3,0-5.4-2.4-5.4-5.4v-0.6c0-3,2.4-5.4,5.4-5.4h41.7c3,0,5.4,2.4,5.4,5.4V201.5z"/>
	
		<path style="clip-path:url(#SVGID_00000131363630804687094540000017411594593146379176_);fill:none;stroke:#B0D2F0;stroke-width:1.6;stroke-miterlimit:10;" d="
		M60.2,201.5c0,3-2.4,5.4-5.4,5.4H13.1c-3,0-5.4-2.4-5.4-5.4v-0.6c0-3,2.4-5.4,5.4-5.4h41.7c3,0,5.4,2.4,5.4,5.4V201.5z"/>
	
		<path style="clip-path:url(#SVGID_00000131363630804687094540000017411594593146379176_);fill:none;stroke:#29235C;stroke-width:1.6;stroke-linecap:round;stroke-miterlimit:10;" d="
		M60.2,201.5c0,3-2.4,5.4-5.4,5.4H13.1c-3,0-5.4-2.4-5.4-5.4v-0.6c0-3,2.4-5.4,5.4-5.4h41.7c3,0,5.4,2.4,5.4,5.4V201.5z"/>
	
		<path style="clip-path:url(#SVGID_00000131363630804687094540000017411594593146379176_);fill:none;stroke:#29235C;stroke-width:1.6;stroke-linecap:round;stroke-linejoin:round;stroke-miterlimit:10;" d="
		M20.9,56.3l5,11.5l7.2-7.1 M27.4,67l3.4,3.1l-2.4,37.3l5.4,4.8 M46.6,56.3l-5,11.5l-7.2-7.1 M40.1,67l-3.4,3.1l2.4,37.3l-5.4,4.8
		 M30.7,70.2h6 M13.5,129.4C6.6,129.4,1,124,1,117.2 M54,129.4c6.9,0,12.5-5.5,12.5-12.2 M54,78.1v116.6 M13.5,78.1v116.6
		 M43.4,13.1c4.6,3.8,7.6,10.2,7.6,17.5c0,11.6-7.8,21.1-17.3,21.1c-9.6,0-17.3-9.4-17.3-21.1c0-3.9,0.9-7.6,2.4-10.7 M51.1,32.4
		c3-3,4.8-7.1,4.8-11.7c0-9.1-7.4-16.5-16.5-16.5c0,0-15.4-0.2-21.7-3.9c-1.4,2.3-2.3,5-2.3,8c0,8.3,6.7,15.1,15.1,15.1
		c6,0,11.2-3.5,13.6-8.6"/>
</g>
<line class="st8" x1="34.1" y1="135.4" x2="34.1" y2="201.3"/>
</svg>
