<?xml version="1.0" encoding="utf-8"?>
<!-- Generator: Adobe Illustrator 26.5.0, SVG Export Plug-In . SVG Version: 6.00 Build 0)  -->
<svg version="1.1" id="Laag_1" xmlns="http://www.w3.org/2000/svg" xmlns:xlink="http://www.w3.org/1999/xlink" x="0px" y="0px"
	 viewBox="0 0 84 67" style="enable-background:new 0 0 84 67;" xml:space="preserve">
<style type="text/css">
	.st0{fill:none;stroke:#342F60;stroke-width:1.578;stroke-linecap:round;stroke-miterlimit:10;}
	.st1{clip-path:url(#SVGID_00000142894545396681935520000007371775172920725376_);fill:#FFFFFF;}
	
		.st2{clip-path:url(#SVGID_00000142894545396681935520000007371775172920725376_);fill:none;stroke:#342F60;stroke-width:1.578;stroke-miterlimit:10;}
	
		.st3{clip-path:url(#SVGID_00000142894545396681935520000007371775172920725376_);fill:none;stroke:#342F60;stroke-width:1.578;stroke-linecap:round;stroke-miterlimit:10;}
</style>
<rect x="38.5" y="48.2" class="st0" width="7.3" height="13.4"/>
<g>
	<defs>
		<rect id="SVGID_1_" x="-5.4" y="0.8" width="97.7" height="65.5"/>
	</defs>
	<clipPath id="SVGID_00000007394404620542643230000010414140789339515022_">
		<use xlink:href="#SVGID_1_"  style="overflow:visible;"/>
	</clipPath>
	<path style="clip-path:url(#SVGID_00000007394404620542643230000010414140789339515022_);fill:#FFFFFF;" d="M82.5,43.6
		c0,2.8-2.3,5.2-5.2,5.2H6.8c-2.8,0-5.2-2.3-5.2-5.2V6.8C1.6,4,4,1.6,6.8,1.6h70.6c2.8,0,5.2,2.3,5.2,5.2V43.6z"/>
	
		<path style="clip-path:url(#SVGID_00000007394404620542643230000010414140789339515022_);fill:none;stroke:#342F60;stroke-width:1.578;stroke-miterlimit:10;" d="
		M82.5,43.6c0,2.8-2.3,5.2-5.2,5.2H6.8c-2.8,0-5.2-2.3-5.2-5.2V6.8C1.6,4,4,1.6,6.8,1.6h70.6c2.8,0,5.2,2.3,5.2,5.2V43.6z"/>
	
		<path style="clip-path:url(#SVGID_00000007394404620542643230000010414140789339515022_);fill:none;stroke:#342F60;stroke-width:1.578;stroke-linecap:round;stroke-miterlimit:10;" d="
		M82.5,43.6c0,2.8-2.3,5.2-5.2,5.2H6.8c-2.8,0-5.2-2.3-5.2-5.2V6.8C1.6,4,4,1.6,6.8,1.6h70.6c2.8,0,5.2,2.3,5.2,5.2V43.6z"/>
	<path style="clip-path:url(#SVGID_00000007394404620542643230000010414140789339515022_);fill:#FFFFFF;" d="M25.5,65.5v-2
		c0-1.1,2.3-2,5.2-2h21.7c2.8,0,5.2,0.9,5.2,2v2"/>
	
		<path style="clip-path:url(#SVGID_00000007394404620542643230000010414140789339515022_);fill:none;stroke:#342F60;stroke-width:1.578;stroke-miterlimit:10;" d="
		M25.5,65.5v-2c0-1.1,2.3-2,5.2-2h21.7c2.8,0,5.2,0.9,5.2,2v2"/>
	
		<path style="clip-path:url(#SVGID_00000007394404620542643230000010414140789339515022_);fill:none;stroke:#342F60;stroke-width:1.578;stroke-linecap:round;stroke-miterlimit:10;" d="
		M25.5,65.5v-2c0-1.1,2.3-2,5.2-2h21.7c2.8,0,5.2,0.9,5.2,2v2"/>
</g>
</svg>
