<?xml version="1.0" encoding="utf-8"?>
<!-- Generator: Adobe Illustrator 25.4.8, SVG Export Plug-In . SVG Version: 6.00 Build 0)  -->
<svg version="1.1" id="Laag_1" xmlns="http://www.w3.org/2000/svg" xmlns:xlink="http://www.w3.org/1999/xlink" x="0px" y="0px"
	 viewBox="0 0 70 206" style="enable-background:new 0 0 70 206;" xml:space="preserve">
<style type="text/css">
	.st0{clip-path:url(#SVGID_00000132076077828426981580000002809335622454542231_);fill:#B0D2F0;}
	
		.st1{clip-path:url(#SVGID_00000085967587957019573350000014891445431793687947_);fill:none;stroke:#B0D2F0;stroke-width:1.6;stroke-miterlimit:10;}
	
		.st2{clip-path:url(#SVGID_00000038388835468967940350000018404934777382574521_);fill:none;stroke:#29235C;stroke-width:1.6;stroke-linecap:round;stroke-miterlimit:10;}
	
		.st3{clip-path:url(#SVGID_00000075134950411273756060000012137457171462835611_);fill:none;stroke:#29235C;stroke-width:1.6;stroke-linecap:round;stroke-linejoin:round;stroke-miterlimit:10;}
	.st4{clip-path:url(#SVGID_00000116918224061405789590000005173566501859677092_);fill:#B0D2F0;}
	
		.st5{clip-path:url(#SVGID_00000086659021525445585050000017021806639152460730_);fill:none;stroke:#B0D2F0;stroke-width:1.6;stroke-miterlimit:10;}
	
		.st6{clip-path:url(#SVGID_00000160191186219080169790000001611314609718943414_);fill:none;stroke:#29235C;stroke-width:1.6;stroke-linecap:round;stroke-linejoin:round;stroke-miterlimit:10;}
</style>
<g>
	<g>
		<defs>
			<rect id="SVGID_1_" x="0.2" y="0.4" width="69.9" height="205.8"/>
		</defs>
		<clipPath id="SVGID_00000142854255802801536460000017015063437748651412_">
			<use xlink:href="#SVGID_1_"  style="overflow:visible;"/>
		</clipPath>
		<path style="clip-path:url(#SVGID_00000142854255802801536460000017015063437748651412_);fill:#B0D2F0;" d="M51.1,200.2
			c1,2.8-0.7,5.1-3.6,5.1H22.6c-3,0-4.6-2.3-3.6-5.1l0.5-1.2c1-2.8,4.3-5.1,7.3-5.1h16.8c3,0,6.2,2.3,7.2,5.1L51.1,200.2z"/>
	</g>
	<g>
		<defs>
			<rect id="SVGID_00000147907146890549726840000008905222031129898656_" x="0.2" y="0.4" width="69.9" height="205.8"/>
		</defs>
		<clipPath id="SVGID_00000157273281457397164790000013904515305336645006_">
			<use xlink:href="#SVGID_00000147907146890549726840000008905222031129898656_"  style="overflow:visible;"/>
		</clipPath>
		
			<path style="clip-path:url(#SVGID_00000157273281457397164790000013904515305336645006_);fill:none;stroke:#B0D2F0;stroke-width:1.6;stroke-miterlimit:10;" d="
			M51.1,200.2c1,2.8-0.7,5.1-3.6,5.1H22.6c-3,0-4.6-2.3-3.6-5.1l0.5-1.2c1-2.8,4.3-5.1,7.3-5.1h16.8c3,0,6.2,2.3,7.2,5.1L51.1,200.2
			z"/>
	</g>
	<g>
		<defs>
			<rect id="SVGID_00000034808152699605906840000003686775200524165558_" x="0.2" y="0.4" width="69.9" height="205.8"/>
		</defs>
		<clipPath id="SVGID_00000070821672516345437120000002737039832963108261_">
			<use xlink:href="#SVGID_00000034808152699605906840000003686775200524165558_"  style="overflow:visible;"/>
		</clipPath>
		
			<path style="clip-path:url(#SVGID_00000070821672516345437120000002737039832963108261_);fill:none;stroke:#29235C;stroke-width:1.6;stroke-linecap:round;stroke-miterlimit:10;" d="
			M51.1,200.2c1,2.8-0.7,5.1-3.6,5.1H22.6c-3,0-4.6-2.3-3.6-5.1l0.5-1.2c1-2.8,4.3-5.1,7.3-5.1h16.8c3,0,6.2,2.3,7.2,5.1L51.1,200.2
			z"/>
	</g>
	<g>
		<defs>
			<rect id="SVGID_00000079487348978744045690000001609605082044002470_" x="0.2" y="0.4" width="69.9" height="205.8"/>
		</defs>
		<clipPath id="SVGID_00000150816354961353363430000011733357799551332768_">
			<use xlink:href="#SVGID_00000079487348978744045690000001609605082044002470_"  style="overflow:visible;"/>
		</clipPath>
		
			<path style="clip-path:url(#SVGID_00000150816354961353363430000011733357799551332768_);fill:none;stroke:#29235C;stroke-width:1.6;stroke-linecap:round;stroke-linejoin:round;stroke-miterlimit:10;" d="
			M19.8,149.7l3.1,44.1 M49.3,29c0,10.1-6.7,18.3-15,18.3s-15-8.2-15-18.3 M14.9,30.9c0,0,12.2-4.8,19.4-13.7 M30.2,10.8
			c0,0,10.8,13.4,23.4,20.1 M34.6,1.4C15.2-0.9,12.6,14,10.2,25.2S2.5,40.4,2.5,40.4s0.3,6.2,10.2,12 M22.2,53.7
			c0,0-13.7,4.4-13.7,17L9,111.6 M50.5,149.8l-3.1,44.1 M35.6,1.5C55.1-0.8,57.7,14.1,60,25.3s7.7,15.2,7.7,15.2s-0.3,6.2-10.2,12
			 M48.1,53.8c0,0,13.7,4.4,13.7,17l-0.5,40.9 M35.2,152v48"/>
	</g>
	<g>
		<defs>
			<rect id="SVGID_00000178196221177752251440000002775039838371854504_" x="0.2" y="0.4" width="69.9" height="205.8"/>
		</defs>
		<clipPath id="SVGID_00000133529129182508247220000004703243084394764929_">
			<use xlink:href="#SVGID_00000178196221177752251440000002775039838371854504_"  style="overflow:visible;"/>
		</clipPath>
		<path style="clip-path:url(#SVGID_00000133529129182508247220000004703243084394764929_);fill:#B0D2F0;" d="M47.4,53.7
			c0,6.7-5.7,12.1-12.6,12.1c-7,0-12.6-5.4-12.6-12.1C12.3,63,16,71.1,18.8,80.9s-0.7,15.5-0.7,15.5c-3.4,4.8-6.4,9.9-8.9,15.2
			c-4.3,9.3-7.1,19.3-8.2,29.9c9.7,6.4,21.3,10.1,33.9,10.1l0.5,0.1c12.5,0,24.1-3.7,33.9-10.1c-1.1-10.6-3.9-20.7-8.2-29.9
			c-2.5-5.4-5.5-10.5-8.9-15.2c0,0-3.4-5.6-0.7-15.5c2.8-9.8,6.5-17.8-3.4-27.2L47.4,53.7z"/>
	</g>
	<g>
		<defs>
			<rect id="SVGID_00000047055865178850654950000003211532098382272170_" x="0.2" y="0.4" width="69.9" height="205.8"/>
		</defs>
		<clipPath id="SVGID_00000103253836358980536070000010749698209351646887_">
			<use xlink:href="#SVGID_00000047055865178850654950000003211532098382272170_"  style="overflow:visible;"/>
		</clipPath>
		
			<path style="clip-path:url(#SVGID_00000103253836358980536070000010749698209351646887_);fill:none;stroke:#B0D2F0;stroke-width:1.6;stroke-miterlimit:10;" d="
			M47.4,53.7c0,6.7-5.7,12.1-12.6,12.1c-7,0-12.6-5.4-12.6-12.1C12.3,63,16,71.1,18.8,80.9s-0.7,15.5-0.7,15.5
			c-3.4,4.8-6.4,9.9-8.9,15.2c-4.3,9.3-7.1,19.3-8.2,29.9c9.7,6.4,21.3,10.1,33.9,10.1l0.5,0.1c12.5,0,24.1-3.7,33.9-10.1
			c-1.1-10.6-3.9-20.7-8.2-29.9c-2.5-5.4-5.5-10.5-8.9-15.2c0,0-3.4-5.6-0.7-15.5c2.8-9.8,6.5-17.8-3.4-27.2L47.4,53.7z"/>
	</g>
	<g>
		<defs>
			<rect id="SVGID_00000048494946172632714910000000255963751753548939_" x="0.2" y="0.4" width="69.9" height="205.8"/>
		</defs>
		<clipPath id="SVGID_00000047031455782582067710000003499336850535693469_">
			<use xlink:href="#SVGID_00000048494946172632714910000000255963751753548939_"  style="overflow:visible;"/>
		</clipPath>
		
			<path style="clip-path:url(#SVGID_00000047031455782582067710000003499336850535693469_);fill:none;stroke:#29235C;stroke-width:1.6;stroke-linecap:round;stroke-linejoin:round;stroke-miterlimit:10;" d="
			M47.4,53.7c0,6.7-5.7,12.1-12.6,12.1c-7,0-12.6-5.4-12.6-12.1C12.3,63,16,71.1,18.8,80.9s-0.7,15.5-0.7,15.5
			c-3.4,4.8-6.4,9.9-8.9,15.2c-4.3,9.3-7.1,19.3-8.2,29.9c9.7,6.4,21.3,10.1,33.9,10.1l0.5,0.1c12.5,0,24.1-3.7,33.9-10.1
			c-1.1-10.6-3.9-20.7-8.2-29.9c-2.5-5.4-5.5-10.5-8.9-15.2c0,0-3.4-5.6-0.7-15.5c2.8-9.8,6.5-17.8-3.4-27.2L47.4,53.7z"/>
	</g>
</g>
</svg>
